<?xml version="1.0" encoding="UTF-8"?>
<svg id="Calque_1" xmlns="http://www.w3.org/2000/svg" version="1.1" viewBox="0 0 450 450">
  <!-- Generator: Adobe Illustrator 29.5.1, SVG Export Plug-In . SVG Version: 2.1.0 Build 141)  -->
  <defs>
    <style>
      .st0, .st1 {
        fill-rule: evenodd;
      }

      .st0, .st2 {
        fill: #fff;
      }

      .st1, .st3 {
        fill: #003468;
      }
    </style>
  </defs>
  <g>
    <path class="st3" d="M104.6,207.1l-1.9-3.3-21.6-4.7-3.1,2.2h-.3s2.4-11.3,2.4-11.3h.3s1.8,3.8,1.8,3.8l23.4,5.1,1.6-7.7-5.2-6.3v-.2s7,2.5,7,2.5l-4.3,19.9h-.3s0,0,0,0Z"/>
    <path class="st3" d="M110.3,182.6l-1.2-3.6-20-9.2-3.5,1.5h-.3c0-.1,8.6-18.8,8.6-18.8l6.7,3.1v.2s-7.6,1-7.6,1l-3.4,7.3,11,5.1,2.1-4.6-1.9-4v-.3c.1,0,7.5,3.4,7.5,3.4v.3c-.1,0-4.7,1.1-4.7,1.1l-2.1,4.6,11.7,5.3,3.9-8.5-3.7-7.3v-.2s6.4,4,6.4,4l-9.1,19.7h-.3s-.2,0-.2,0Z"/>
    <path class="st3" d="M128.6,148.7l.2-3.8-15.7-15.5-3.7.2-.3-.2,8.6-8.7c6.2-6.3,13.7-7.1,20.3-.8,6.5,6.4,5.9,13.9-.6,20.4l-8.5,8.6-.3-.2h0ZM136.6,139.7c4.7-4.7,3.3-9.6-2.6-15.5-6.3-6.2-11.4-7.3-15.7-2.8l-2.8,2.8,18.4,18.2,2.7-2.7h0Z"/>
    <path class="st3" d="M151.1,126.9l1.1-3.7-11.6-18.8-3.8-.7-.2-.3,17.5-10.8,3.8,6.3h-.2c0,0-6.8-3.3-6.8-3.3l-6.8,4.3,6.3,10.4,4.4-2.7.6-4.5.3-.2,4.3,6.9-.3.2-4.4-1.6-4.4,2.7,6.8,11,7.9-4.9,1-8.1h.2s3.1,6.7,3.1,6.7l-18.5,11.4-.2-.3h-.2Z"/>
    <path class="st3" d="M173.8,113.2l1.9-3.3-6.7-20.9-3.5-1.5v-.3c0,0,12.1-4,12.1-4,6.4-2.1,10.6-.5,11.9,3.6,1.5,4.7-1.7,8-5.8,9.9h0c1.1.1,2.4-.2,3.5-.4l8.4,7.5,3.5,1.3v.3c0,0-7.4,2.4-7.4,2.4l-10.1-10.2c-.4.2-.8.3-1.4.5l-1.3.4-.3-.9,1.5-.5c4.1-1.3,4.9-4.4,3.7-8.5-1.2-3.6-3.4-5.4-7.7-4.1l-2.7.8,7.4,22.8,3.5,1.5v.3c0,0-10.4,3.4-10.4,3.4v-.3s0,0,0,0Z"/>
    <path class="st3" d="M206.5,81.3l1,19.9,3.2,2.7v.3s-6.9.3-6.9.3v-.3s2.7-3.1,2.7-3.1l-1.1-21.7-3.5-2.3v-.3s7.1-.3,7.1-.3l16.4,20.2-.9-17.8-3.2-2.7v-.3s7-.3,7-.3v.3s-2.8,3-2.8,3l1.3,24.5-1.7.7-18.6-22.9h0Z"/>
    <path class="st3" d="M233.9,103.8l3.2-2.1,3.1-21.8-2.4-2.9v-.3s11,1.6,11,1.6v.3s-3.2,2.1-3.2,2.1l-3.1,21.8,2.4,2.9v.3s-11-1.6-11-1.6v-.3Z"/>
    <path class="st3" d="M249.6,105.9l3.5-1.6,6.9-20.9-1.9-3.3v-.3s19.6,6.5,19.6,6.5l-2.3,7h-.2s-1.8-7.4-1.8-7.4l-7.7-2.5-3.8,11.5,4.9,1.6,3.8-2.3h.3s-2.6,7.8-2.6,7.8h-.3s-1.6-4.5-1.6-4.5l-4.9-1.6-4.1,12.3,8.8,2.9,6.9-4.6h.2s-3.3,6.7-3.3,6.7l-20.6-6.8v-.3s.1-.2.1-.2Z"/>
    <path class="st3" d="M274.8,114.5l3.8-.6,11.7-18.7-1.1-3.7.2-.3,10.9,6.9c5.7,3.6,7.2,7.8,4.9,11.4-2.6,4.2-7.2,3.8-11.3,2h0c.7.9,1.7,1.8,2.6,2.4l-.4,11.3,1.3,3.5v.3c-.1,0-6.9-4.2-6.9-4.2l1.4-14.3c-.4-.2-.8-.5-1.2-.7l-1.1-.7.5-.8,1.3.8c3.7,2.4,6.6.9,8.9-2.6,2-3.2,2-6.1-1.9-8.5l-2.4-1.5-12.8,20.3,1.1,3.7-.2.3-9.4-5.9.2-.3h0Z"/>
    <path class="st3" d="M320.1,132c6.6-5.1,14.9-4.5,20.3,2.4,1.5,2.1,2.9,4.3,3.9,8.2l-5.7,5.1-.3-.3c2.7-3.9,4.4-8.1,1.2-12.3-3.5-4.5-9.6-3.3-15.9,1.5-6.4,5-8.7,10.6-5.3,15.1,3,3.8,7.5,3.5,12.1,1.9l.3.3-6.3,4.2c-3.4-2-5.2-3.7-7-6-5.1-6.6-4-14.8,2.6-19.9h.1Z"/>
    <path class="st3" d="M326.8,163.2l3.5,1.6,20.2-8.7,1.2-3.6.3-.2,5.1,11.7c2.6,6.2,1.5,10.6-2.4,12.2-4.5,1.9-8.2-.9-10.5-4.8h0c.2,1.1.5,2.5.8,3.4l-6.7,9.1-.9,3.6-.3.2-3.1-7.2,9.3-11.1c-.3-.4-.4-.8-.6-1.3l-.6-1.3.8-.4.6,1.4c1.7,4.1,4.9,4.6,8.8,2.9,3.5-1.5,5.1-3.9,3.3-8.1l-1.2-2.6-22,9.4-1.2,3.6-.3.2-4.4-10.2.3-.2v.2Z"/>
    <path class="st3" d="M338,192.3l3.1,2.3,21.5-4.6,1.9-3.3h.3c0,0,2.3,10.8,2.3,10.8h-.3c0,0-3.1-2.2-3.1-2.2l-21.5,4.6-1.9,3.3h-.3c0,0-2.3-10.8-2.3-10.8h.3s0,0,0,0Z"/>
  </g>
  <g>
    <path class="st3" d="M201.3,370.4l4.2-3,3.2-32.2-6.3-.6-5.9,7.6h-.3l.9-9.4,30.6,3.1-.9,9.4h-.2l-4.4-8.7-6.2-.6-3.2,32.2,3.5,3.8v.5l-15-1.5v-.5h0Z"/>
    <path class="st3" d="M240,372.3l2.9-4.2-6.9-29-4.5-2.5v-.5c-.1,0,14.5-3.5,14.5-3.5v.5c.1,0-2.8,4.3-2.8,4.3l3.2,13.4,16.1-3.9-3.2-13.4-4.5-2.5v-.5c-.1,0,14.5-3.5,14.5-3.5v.5c.1,0-2.8,4.3-2.8,4.3l6.9,29,4.6,2.5v.5c.1,0-14.5,3.5-14.5,3.5v-.5c-.1,0,2.8-4.2,2.8-4.2l-3.4-14.3-16.1,3.9,3.4,14.3,4.6,2.5v.5c.1,0-14.5,3.5-14.5,3.5v-.5l-.3-.2Z"/>
    <path class="st3" d="M282.4,341.4c-6.4-9.4-4.6-20.4,4.5-26.6s20.1-3.9,26.5,5.5,4.5,20.4-4.6,26.6-20,3.9-26.4-5.5ZM306.9,324.8c-6.3-9.3-13.3-12.9-19.2-8.9-5.9,4-5,11.9,1.3,21.1,6.2,9.2,13.3,12.9,19.1,8.9,5.9-4,5.1-11.9-1.2-21.1h0Z"/>
    <path class="st3" d="M313.4,301.4l21.8,15.8,5.5-1,.4.3-5.5,7.6-.4-.3-.8-5.5-23.8-17.2-5.4,1.6-.4-.3,5.6-7.8,35.1-.2-19.4-14.1-5.6,1-.3-.2,5.6-7.7.3.2.8,5.6,26.9,19.5-.6,2.4h-39.9v.3Z"/>
  </g>
  <polygon class="st1" points="92 229.1 95.2 238.9 105.5 238.9 97.1 245 100.3 254.8 92 248.7 83.7 254.8 86.8 245 78.5 238.9 88.8 238.9 92 229.1"/>
  <polygon class="st1" points="355.8 229.1 358.9 238.9 369.2 238.9 360.9 245 364.1 254.8 355.8 248.7 347.4 254.8 350.6 245 342.3 238.9 352.6 238.9 355.8 229.1"/>
  <g>
    <g>
      <g>
        <g>
          <g>
            <g>
              <path class="st3" d="M307.7,202.9c6.1-2.4,13.6-2.8,21.7-1.5-1.5,0-3.1.6-3.1,1.4-1.9.5-2.7,1.1-3,1.8-1.5.8-2.4,1.5-2.7,2.2-1.6,1-2.4,1.8-2.7,2.7-1.5,1.1-2.1,2-2.4,2.8-1.1,1-1.6,1.9-1.7,2.4-.9.8-1.4,1.6-1.5,2.4-.5.3-1.4,2.1-1.7,3l-2.8-17.1h-.1Z"/>
              <g>
                <path class="st2" d="M308.8,203.9c.7.5,2.5-.2,3.9-.4,4.2-.9,6.5-1.2,11.4-1.3-5.1-.4-11.3.4-15.2,1.8Z"/>
                <path class="st2" d="M309.2,205.5c.5.3,2.6-.2,4.1-.4,2.9-.5,4.5-.9,8-1-3.5-.3-9,.5-12.1,1.5Z"/>
                <path class="st2" d="M309.7,206.9c.3.2,2.3,0,3.1-.3,2.5-.5,3.6-.8,6.9-.9-3.2-.1-7.8.5-10,1.3h0Z"/>
              </g>
            </g>
            <g>
              <path class="st3" d="M208.9,302c-8-4.1-3-31.6-17.6-49.9,2.1,4.6,2.5,7.5,1.7,8.9,1.2,3.9,1.3,6.1.6,6.9.8,3.3.6,5.4-.4,6.6.5,3.8,0,5.9-1.2,7.1.3,3.4-.3,5.6-1.5,6.6.4,3.2-.3,5.2-1.5,6.5-.5,3.1-1.3,5.5-2.9,7-.4,3.7-1.2,6.1-2.4,7.2-.7,3.4-1.8,5.5-2.9,6.6-1,2.9-2.1,5.1-3.7,6.3-.5,2-2,3.7-4.4,5.3,0,1-1.4,2.4-4.2,4.2-.3,1.1-2.2,2.2-4.3,2.8-.1,1.3-3.3,2.9-6.8,4.5,18.5-3.3,39.1-23.4,51.5-28.2l.2-8.2h0Z"/>
              <g>
                <g>
                  <path class="st2" d="M195,261.5c3.8,8.1,5.2,17,6.4,24.5.7,4.6,1.4,8.7,2.5,11.8-1.7-2.5-2.4-7-3.2-11.7-1.5-9-3.1-17.3-5.6-24.5h0Z"/>
                  <path class="st2" d="M201.6,297.7c-2.3-5.7-3.9-20.1-6.2-27.7,1.5,8.5,2.6,21.2,6.2,27.7Z"/>
                  <path class="st2" d="M199.5,297.9c-1.6-4.6-3.1-11.4-4.6-21.1.5,9.3,2.1,16.3,4.6,21.1Z"/>
                </g>
                <g>
                  <path class="st2" d="M201.2,312.1c-3.3,2-7,4.5-10.9,7.2-6.2,4.2-12.9,8.8-19.6,12.3,6.4-4.3,12.8-8.5,19.1-13,3.7-2.7,8.3-5.4,11.4-6.5h0Z"/>
                  <path class="st2" d="M198.5,311.4c-6.3,3.3-15.7,11.2-22.9,15.3,7.2-5.2,15.5-12.8,22.9-15.3Z"/>
                  <path class="st2" d="M196.4,310.4c-4.9,2.4-10.8,6.6-17.1,11.4,5.6-5.4,11.4-9.6,17.1-11.4Z"/>
                </g>
              </g>
            </g>
            <g>
              <path class="st3" d="M266,148.9c10.2-8.1,23.7-13.4,40.4-15.9-3,1.3-4.9,3.7-4.4,4.9-2.5,2-3.2,3.5-2.9,4.6-1.9,1.9-2.4,3.8-2.1,5.5-1.1,1.7-1.3,3.2-.9,4.4-.8,1.7-.7,3.1-.4,4.5-.7,1.7-.6,3.1.1,4.1-.6,2-.3,3.4.6,4.8-.3,1.7,0,3.1.9,4.4-.3,1.5,0,2.7,1,3.8,0,1.6.8,2.9,1.5,3.9.2,1.4.8,3.2,1.6,4.4-.7-.2-1.7-.3-2.3-.2l-33.4-33.2h.2Z"/>
              <g>
                <path class="st2" d="M269.3,149.2c1.7.5,5.2-1.6,7.5-2.9,7.7-4,13.1-6.1,21.7-9.1-10.5,2.4-22.3,7.3-29.2,12h0Z"/>
                <path class="st2" d="M272.4,151.3c1.5.2,4.6-1.3,8-2.8,6.3-3.1,8-3.8,16.1-6.7-8.5,1.9-17.6,5.4-24.1,9.5Z"/>
                <path class="st2" d="M275.5,153.5c.9,0,3-.5,4.7-1.4,5.3-2.9,6.7-3.5,14.3-6.7-6.7,1.9-14.3,4.8-18.9,8h0Z"/>
                <path class="st2" d="M278.1,155.5c1.5.1,5.2-1.7,7-2.6,4-2,4.3-2,8.4-3.7-4.6,1.2-11.2,3.8-15.3,6.4h0Z"/>
                <path class="st2" d="M280.5,157.4c1.4.2,4.4-1.2,5.7-1.8,2.4-1.2,3.3-1.5,6.2-2.9-3.3.8-8.2,2.6-12,4.7h0Z"/>
              </g>
            </g>
            <path class="st3" d="M219.3,206c-4.1,9.9-3.1,27.7.9,35,.1-1.3.9-2.8,1.5-3.1.5-1.6,1.2-2.7,2.2-2.9.3-1.4,1.1-2.2,2-2.5.3-1.4,1.1-2.4,2.2-2.6.4-1.2,1.1-1.9,2-2.2.3-.8,2-1.7,2-3.1,0-1-.7-2.2-2.2-4.2-2.1-2.8-4-6-5.1-9.1l-5.6-5.3h0Z"/>
          </g>
          <g>
            <path class="st2" d="M201.2,310c-3.7-1.1-8.2-3.7-10.5-5.7-.5-.3-.9-1-.9-1.5s.5-.8,1.3-1.1c4.6-1.7,10.4-2.2,13.9-1.3.3,0,.6.2.8.3.6.3,1.2.5,1.6.8.7.4,1.3.7,2.3,1,1.1.3,2.5.4,4.2.3,20.7-1.6,33.2-10.5,39.5-28,2.3-6.3,2.9-13.2,3-21.6.2-12.2-9.7-24.4-30.3-37.5-4.4-2.8-8.1-4.8-11.5-6.6-3-1.6-5.7-3.1-8.9-5.1-5.2-3.3-11-7.6-17.3-12.8l27.3-57.5c8.8.2,17.4,1.6,25.6,3.8,5.4,1.4,10.6,3.3,15.6,5.6,11.1,5.1,21,12,29.3,20.5,8,8.2,14.1,17.5,18.3,27.7,9.5,23.1,8.1,49.4-4.2,73.8-8.2,16.4-18.7,27.9-32.3,35.3-15.5,8.5-34.9,11.5-59.3,9.7-1.5-.1-2.4,0-3.3.2-.4,0-.8.1-1.2.2-.8,0-1.9,0-3.1-.4h0Z"/>
            <path class="st3" d="M300.6,265.2c-15.1,30.2-40.6,49.1-91.8,45.1-2.2-.2-3.1.3-4.6.4-3.9.3-10.7-3.5-13.8-6.1-.9-.8-1.7-2.1.5-3,4.8-1.8,11.3-2.4,14.8-1.1,2.3.9,3,2.4,7.9,2.1,22.1-1.7,33.5-11.8,39.3-27.9,2.3-6.3,2.9-13,3-21.5.2-10.3-6.8-22.4-30.1-37.2-8.3-5.2-13.6-7.4-20.4-11.7-4.7-3-10.5-7-17.4-12.9l39.1-.4c3,8.6,8.2,16.2,16.5,22.2,3.9,11.1,9.9,19.7,17.3,26.7,2.5,2.2,3.6,5.7,4.1,9.4.1.7.8,11.9.8,12,.2,5.5,0,10.8-1.6,16-.7,2.5-1.8,5-2.9,7.1-2.4,4.6-7.6,9.7-8.6,10.4,2.3-2.7,4.3-5.8,3.4-6.3-.3-.1-.7.2-1.4,1.1-8.5,10.6-22,16.2-33.4,17.7,15.7-3.5,27.2-11.7,33.2-21.7,4.3-7.1,6.7-16.5,7.2-25.2-9.5,34.2-26.5,41.1-44.3,44.1-2.6.5-4,.4-4.8.6-1,.2-1.6,1.3-1.2,1.9,0-.4.3-.9.7-1-.5.8-.4,1.6.4,1.8.9.3,2.3.4,3.7.7,13.6,1.8,27.7-.5,40-6.4,12.9-6.2,21.7-18.6,31.2-29.4,3.8-4.4,5.2-10.3,6.3-15.9.8-3.6,1.5-7.4,3-10.9.8-1.6,1.8-5.4,2.6-6.9.5-1.4.8-4.3,1-5.7.3-7.1-1.6-10.9-4.3-17.4-3.3-8.2-11.4-27-26.9-36.4-3.3-2-17.7-11.7-30.7-12.8l-23-32.7c15.3.5,29.3,3.9,41.4,9.4,22.8,10.4,39.4,28.3,47.7,48.3,9.3,22.4,8.5,48.6-4.2,74v-.3Z"/>
            <g>
              <path class="st3" d="M267.9,257.6c.4,5.8.6,12.8-1.7,20-1.8,5.9-4.5,9.6-7,12.7,4.7-4,8.8-11.8,9.8-19.2.7-5.1.4-10-1.1-13.6h0Z"/>
              <path class="st3" d="M246.8,214.1c1,5.4,9.8,19.8,15.4,23.6-4.6-5.5-10.4-14.6-15.4-23.6Z"/>
              <path class="st3" d="M251.4,295.9c-5.1,3.9-12,7.7-19.2,9.8,9.9-2.2,17.7-6.8,19.2-9.8Z"/>
            </g>
            <g>
              <g>
                <path class="st3" d="M225.6,304.5c-.5-.3-.8-1.6-.7-2.1-.5.7,0,1.9.7,2.1Z"/>
                <path class="st3" d="M222.9,305c-.5-.3-.7-1.4-.5-1.9-.4.6,0,1.7.5,1.9Z"/>
                <path class="st3" d="M220.4,305.8c-.5-.3-.7-1.5-.6-1.9-.4.6,0,1.7.6,1.9Z"/>
                <path class="st3" d="M217.5,306.1c-.4-.3-.5-1.2-.5-1.6-.3.5-.1,1.4.5,1.6Z"/>
                <path class="st3" d="M215,306c-.3-.2-.4-1-.4-1.3-.2.4,0,1.2.4,1.3Z"/>
                <path class="st3" d="M228,303.7c-.5-.4-.8-1.7-.8-2.3-.4.8,0,2.1.8,2.3Z"/>
                <path class="st3" d="M230.3,302.7c-.6-.5-1-1.9-1-2.6-.4.9.2,2.3,1,2.6Z"/>
                <path class="st3" d="M232.1,301.8c-.5-.4-.8-1.7-.9-2.3-.4.8.2,2.1.9,2.3Z"/>
                <path class="st3" d="M234.1,301c-.5-.3-.8-1.6-.8-2.1-.3.7.1,1.8.8,2.1Z"/>
              </g>
              <g>
                <path class="st3" d="M286.8,189.9c-.7,1.1-3.2,2.4-4.5,2.5,1.6.5,4.2-1,4.5-2.5Z"/>
                <path class="st3" d="M286.1,194.9c-.7,1.1-3.1,2.2-4.2,2.3,1.6.5,4-1,4.2-2.3Z"/>
                <path class="st3" d="M262.1,178.1c0,1.1-1.2,3.1-2,3.7,1.2-.4,2.5-2.6,2-3.7Z"/>
                <path class="st3" d="M264.3,172.7c.1,1-1,3-1.8,3.6,1.3-.5,2.3-2.6,1.8-3.6Z"/>
                <path class="st3" d="M258.8,174.1c1.3-.6,2.1-2.9,1.5-3.9,0,1.1-.6,2.9-1.5,3.9Z"/>
                <path class="st3" d="M257.5,174.7c.2,1.1-.8,3.1-1.6,3.9,1.3-.6,2.2-2.8,1.6-3.9Z"/>
                <path class="st3" d="M255.3,169.3c.3,1-.5,3.3-1.1,4,1.2-.7,1.8-3,1.1-4Z"/>
                <path class="st3" d="M252,172.7c.3,1.3-.9,3.8-1.7,4.7,1.5-.8,2.4-3.5,1.7-4.7Z"/>
                <path class="st3" d="M249.5,168.7c.3,1.1-.5,3.6-1.2,4.4,1.3-.8,2-3.3,1.2-4.4Z"/>
                <path class="st3" d="M244.9,169.6c.4,1.3-.4,4.2-1.3,5.1,1.5-1,2.2-4,1.3-5.1Z"/>
                <path class="st3" d="M246.4,175.6c.2,1.2-.9,3.6-1.6,4.5,1.4-.7,2.4-3.3,1.6-4.5Z"/>
                <path class="st3" d="M241,168.7c.4,1.2-.4,3.9-1,4.8,1.3-.9,1.9-3.7,1-4.8Z"/>
                <path class="st3" d="M241.5,174.8c.2.9-.4,2.9-.9,3.5,1.1-.6,1.6-2.8.9-3.5Z"/>
                <path class="st3" d="M268.3,174.4c0,1.2-1.2,3.3-2,4,1.4-.5,2.5-2.9,2-4Z"/>
                <path class="st3" d="M283.1,185.9c-.3,1.3-2.4,3-3.5,3.4,1.6,0,3.7-2,3.5-3.4Z"/>
                <path class="st3" d="M267.5,179.8c0,1.1-1.3,3-2.1,3.6,1.3-.4,2.6-2.6,2.1-3.6Z"/>
                <path class="st3" d="M277.6,195.7c-.6,1.1-3,2.3-4.2,2.5,1.6.4,4-1.1,4.2-2.5Z"/>
                <path class="st3" d="M286.2,199.9c-.6,1-3,2.1-4.1,2.2,1.5.4,3.9-.9,4.1-2.2Z"/>
                <path class="st3" d="M290.3,202c-.6.9-2.7,2-3.6,2.1,1.3.3,3.5-.9,3.6-2.1Z"/>
                <path class="st3" d="M293.8,227.1c-.9.7-3.3.9-4.3.6,1.1.8,3.7.4,4.3-.6Z"/>
                <path class="st3" d="M292,220.7c-.7.9-3,1.7-4,1.7,1.3.4,3.7-.6,4-1.7Z"/>
                <path class="st3" d="M300,234.5c-1,.5-3.2.3-4.2-.1.9,1,3.4,1,4.2.1Z"/>
                <path class="st3" d="M283.2,275c-1.1-.1-3-1.4-3.5-2.1.4,1.3,2.5,2.6,3.5,2.1Z"/>
                <path class="st3" d="M288.5,275.5c-1.1,0-3.1-1-3.7-1.9.4,1.3,2.6,2.5,3.7,1.9Z"/>
                <path class="st3" d="M302.2,228.8c-.8.8-3,1.3-4,1.1,1.2.6,3.6,0,4-1.1Z"/>
                <path class="st3" d="M294.4,231.9c-1,.5-3.2.3-4.2-.1.9,1,3.4,1,4.2.1Z"/>
                <path class="st3" d="M285.6,279.1c-1,.1-2.9-1-3.5-1.7.4,1.2,2.5,2.3,3.5,1.7Z"/>
                <path class="st3" d="M279.5,286.1c-1,0-2.8-1.3-3.3-2,.3,1.2,2.2,2.5,3.3,2Z"/>
                <path class="st3" d="M281.9,281.9c-1.1-.1-3-1.4-3.5-2.1.4,1.3,2.5,2.6,3.5,2.1Z"/>
                <path class="st3" d="M278,282.7c-1.1-.1-3-1.4-3.5-2.1.4,1.3,2.5,2.6,3.5,2.1Z"/>
                <path class="st3" d="M280.5,277.9c-.9,0-2.5-1.1-2.9-1.8.3,1.1,2,2.2,2.9,1.8Z"/>
                <path class="st3" d="M272,289.8c-1,0-2.7-1.5-3.2-2.2.3,1.2,2.2,2.6,3.2,2.2Z"/>
                <path class="st3" d="M275.3,285.8c-1.1-.1-2.9-1.3-3.4-2.1.3,1.2,2.4,2.5,3.4,2.1Z"/>
                <path class="st3" d="M249.9,304.1c-.7-.4-1.2-1.6-1.1-2.2-.4.9.3,2.1,1.1,2.2Z"/>
                <path class="st3" d="M246.2,305.6c-.6-.4-.9-1.5-.8-2.1-.4.7.1,1.9.8,2.1Z"/>
                <path class="st3" d="M243.1,307.1c-.6-.4-1-1.5-1-2.1-.4.8.2,2,1,2.1Z"/>
                <path class="st3" d="M239.8,307.8c-.5-.3-.7-1.3-.6-1.8-.4.6,0,1.6.6,1.8Z"/>
                <path class="st3" d="M236.9,308.4c-.3-.2-.5-1.2-.6-1.5-.1.5,0,1.3.6,1.5Z"/>
                <path class="st3" d="M276,289.4c-1,0-2.7-1.4-3.2-2.2.2,1.3,2.1,2.6,3.2,2.2Z"/>
                <path class="st3" d="M254.5,302.8c-.9-.5-1.7-2.2-1.7-3-.3,1.1.7,2.9,1.7,3Z"/>
                <path class="st3" d="M258.2,301.1c-.8-.4-1.5-2-1.5-2.8-.3,1,.6,2.7,1.5,2.8Z"/>
                <path class="st3" d="M261.7,299.4c-.9-.5-1.8-2.4-1.9-3.3-.3,1.2.8,3.2,1.9,3.3Z"/>
                <path class="st3" d="M265.4,297.5c-.9-.4-2-2-2.2-2.8-.1,1.2,1.2,2.8,2.2,2.8Z"/>
                <path class="st3" d="M268.4,294.9c-1-.2-2.6-1.8-3-2.6,0,1.3,1.8,2.9,3,2.6Z"/>
                <path class="st3" d="M272.1,293.4c-1.1-.1-2.9-1.5-3.4-2.3.3,1.3,2.3,2.7,3.4,2.3Z"/>
                <path class="st3" d="M304,237.1c-1,.5-3.2.3-4.2-.1.9,1,3.4,1,4.2.1Z"/>
                <path class="st3" d="M293.9,236.9c-1,.5-3.2.3-4.2-.1.9,1,3.4,1,4.2.1Z"/>
                <path class="st3" d="M293.9,241.9c-1,.5-3.3,0-4.2-.4.9,1,3.4,1.2,4.2.4Z"/>
                <path class="st3" d="M300,243.5c-1.1.5-3.4,0-4.3-.4.9,1.1,3.5,1.3,4.3.4Z"/>
                <path class="st3" d="M298.9,239.3c-1,.5-3.4.4-4.3-.1,1,1,3.5,1,4.3.1Z"/>
                <path class="st3" d="M285.5,271.2c-1.1,0-3.1-1.1-3.7-1.9.5,1.3,2.7,2.4,3.7,1.9Z"/>
                <path class="st3" d="M289.2,268.3c-1.2.2-3.5-1-4.2-1.8.6,1.4,3.2,2.5,4.2,1.8Z"/>
                <path class="st3" d="M290.8,262.8c-1,.4-3.3-.1-4.2-.7.8,1.1,3.3,1.5,4.2.7Z"/>
                <path class="st3" d="M297.3,245.8c-1,.5-3.3,0-4.2-.4.9,1,3.4,1.2,4.2.4Z"/>
                <path class="st3" d="M297.8,251.1c-1,.5-3.3,0-4.2-.4.9,1,3.4,1.2,4.2.4Z"/>
                <path class="st3" d="M296.3,259.4c-.8.4-2.7.2-3.5-.1.8.8,2.8.9,3.5.1Z"/>
                <path class="st3" d="M292.9,266.7c-.9.1-2.6-.8-3.2-1.4.4,1,2.3,1.8,3.2,1.4Z"/>
                <path class="st3" d="M296.6,255.1c-.8.4-2.7.2-3.5-.1.8.8,2.8.9,3.5.1Z"/>
                <path class="st3" d="M293.1,248.2c-1,.5-3.3,0-4.2-.4.9,1,3.4,1.2,4.2.4Z"/>
                <path class="st3" d="M292.3,257.5c-1,.4-3.3,0-4.2-.6.8,1.1,3.3,1.4,4.2.6Z"/>
                <path class="st3" d="M295.8,261.8c-1,.4-3.2-.1-4.1-.6.8,1.1,3.2,1.4,4.1.6Z"/>
                <path class="st3" d="M291.5,272.4c-1.1,0-3.2-1.1-3.7-1.9.4,1.4,2.7,2.6,3.7,1.9Z"/>
                <path class="st3" d="M292.8,253.4c-1,.4-3.3,0-4.2-.6.8,1.1,3.3,1.4,4.2.6Z"/>
                <path class="st3" d="M290.5,205.3c-.6.9-2.7,2-3.6,2.1,1.3.3,3.5-.9,3.6-2.1Z"/>
                <path class="st3" d="M300.1,224.9c-.8.7-3,1.2-4,1.1,1.1.6,3.6,0,4-1.1Z"/>
                <path class="st3" d="M296.4,222c-.7.8-2.9,1.6-3.9,1.5,1.3.5,3.6-.4,3.9-1.5Z"/>
                <path class="st3" d="M292.3,212.1c-.6.8-2.6,1.9-3.5,1.9,1.3.3,3.3-.8,3.5-1.9Z"/>
                <path class="st3" d="M279.3,200.6c-.6.9-2.7,2-3.6,2.1,1.3.3,3.5-.9,3.6-2.1Z"/>
                <path class="st3" d="M296.5,216.6c-.6.9-2.7,2-3.6,2.1,1.3.3,3.5-.9,3.6-2.1Z"/>
                <path class="st3" d="M294.1,207.6c-.6.9-2.7,2-3.6,2.1,1.3.3,3.5-.9,3.6-2.1Z"/>
                <path class="st3" d="M289.7,215.8c-.7.8-3.1,1.6-4.1,1.6,1.3.5,3.7-.5,4.1-1.6Z"/>
                <path class="st3" d="M282.8,205.6c-.6.9-2.8,1.9-3.8,2.1,1.4.3,3.6-.9,3.8-2.1Z"/>
                <path class="st3" d="M298.7,210.8c-.7,1.1-3.3,2.4-4.6,2.5,1.7.5,4.3-1,4.6-2.5Z"/>
                <path class="st3" d="M286.6,210.7c-.6.9-2.8,1.9-3.8,2.1,1.4.3,3.6-.9,3.8-2.1Z"/>
                <path class="st3" d="M277.4,186.8c-.1,1.3-2.1,3.3-3.2,3.9,1.6-.1,3.6-2.5,3.2-3.9Z"/>
                <path class="st3" d="M272.5,178.2c0,1.2-1.4,3.4-2.4,4,1.4-.4,2.9-2.7,2.4-4Z"/>
                <path class="st3" d="M278.2,181.3c-.1,1.3-2.1,3.3-3.2,3.8,1.6-.1,3.6-2.5,3.2-3.8Z"/>
                <path class="st3" d="M272.3,183.8c-.1,1.3-2.1,3.3-3.2,3.8,1.6-.1,3.5-2.5,3.2-3.8Z"/>
              </g>
            </g>
            <g>
              <path class="st2" d="M301.7,258c-3.1,7.3-7.4,15.2-12.5,21.8-6.2,8.1-13.5,14.4-21.9,19,13.8-8.8,24.9-23.1,34.4-40.8h0Z"/>
              <g>
                <path class="st2" d="M192.4,302.9c4.1-1.4,9.2-1.8,12.3-1,.8.2,1.6.7,2.4,1-1.2-.1-2-.5-2.9-.6-2.8-.5-6-.6-11.7.7h0Z"/>
                <path class="st2" d="M204.1,309c-.6,0-1.5-.1-2.5-.2-2.1-.6-4.5-1.7-6.5-3,3.2,1.5,7,2.5,9,3.4h0Z"/>
                <path class="st2" d="M197.6,304.5c5.2.2,9,.6,11.5,1.6-2.8-.2-6.8-.6-11.5-1.6Z"/>
              </g>
              <path class="st2" d="M211,305.3c-.5.7-.4,1.5,0,2.2-.9-.5-.8-1.7,0-2.2Z"/>
              <path class="st2" d="M297.8,188.4c-.6-4.3-1.7-8.1-3.3-11.8,3.4,4.8,6.2,10,8.4,15.4,3.3,7.8,5.2,16.1,5.8,24.4-1-7.6-5.2-19.3-10.9-28.1h0Z"/>
              <path class="st2" d="M254.8,150.8c-4.4-4.9-9.3-9.1-18.1-12.5,19.9,4.5,38,14.8,51.5,30.1-8.4-7-21.4-13.9-33.4-17.7h0Z"/>
              <path class="st2" d="M208.5,196.9c4,5.3,9.5,10.1,13.5,13.5-8.6-3.8-21.4-11.9-28-17.1l14.5,3.7h0Z"/>
              <path class="st2" d="M234.9,149.4c6.6,1.2,12.7,3.5,17.9,6.2-5.5-1.6-10.9-2.8-16.2-3.4l-1.7-2.9Z"/>
              <path class="st2" d="M234.7,154c6.6,1.2,12.7,3.5,17.9,6.2-5.5-1.6-10.9-2.8-16.2-3.4l-1.7-2.9Z"/>
              <path class="st2" d="M237,154.5c10.3,1.7,19.3,5.4,27.3,10.6-8.6-3.6-17.3-5.6-26.1-6.5l-1.2-4Z"/>
            </g>
          </g>
          <g>
            <g>
              <g>
                <path class="st3" d="M253.7,287.3c-1.2.2-2.4.7-3.7,1.2.2,1.2.2,2.4.2,3.5l3.7-4.8h0Z"/>
                <path class="st2" d="M252.6,288c-.7.2-1.4.5-2.1.8,0,.2,0,.5,0,.7.6-.4,1.3-1,2-1.4h0Z"/>
              </g>
              <g>
                <path class="st3" d="M249.5,292.7c-1.2,0-2.4.2-3.9.5-.1,1.2-.2,2.4-.4,3.5l4.3-4Z"/>
                <path class="st2" d="M248.2,293.3c-.7,0-1.4.2-2.1.4v.6c.6-.3,1.3-.7,2.1-1Z"/>
              </g>
              <g>
                <path class="st3" d="M244.1,297.3c-1.1-.1-2.3-.2-3.6,0-.1,1.1-.5,2.2-.9,3.1l4.5-3.1h0Z"/>
                <path class="st2" d="M242.8,297.7c-.6,0-1.2,0-1.9,0v.6c.5-.3,1.2-.4,1.9-.6h0Z"/>
              </g>
              <g>
                <path class="st3" d="M238.3,301.2c-1-.3-2.1-.4-3.4-.5-.3,1-.8,1.9-1.3,2.7l4.5-2.2h0Z"/>
                <path class="st2" d="M236.8,301.4l-1.6-.2c0,.2,0,.3-.1.5.5-.2,1.1-.2,1.8-.3h0Z"/>
              </g>
              <g>
                <path class="st3" d="M233.1,303.7c-.9-.3-1.8-.6-2.8-.7-.4.9-.9,1.6-1.3,2.3l4.2-1.6Z"/>
                <path class="st2" d="M231.7,303.8c-.4,0-.8-.2-1.2-.2,0,0,0,.2-.1.4.4,0,.8-.1,1.4,0h0Z"/>
              </g>
              <g>
                <path class="st3" d="M228.4,305.6c-.7-.4-1.4-.6-2.3-.9-.4.7-.8,1.3-1.4,1.8l3.7-1h0Z"/>
                <path class="st2" d="M227,305.4c-.2,0-.5-.1-.8-.3,0,0,0,.2-.1.2h.9q0,0,0,0Z"/>
              </g>
            </g>
            <g>
              <g>
                <path class="st3" d="M239.5,181.8c3.5,7.3-.5,14.6,2.3,17.5-5.7-1.5,0-9.2-2.3-17.5Z"/>
                <path class="st3" d="M238.6,196.5c-.6-1.8.8-5.5.7-9.2-.7,4.5-2.7,7.5-.7,9.2Z"/>
              </g>
              <g>
                <path class="st3" d="M239.5,179.5c4.9,6.5,5.7,14.6,3.7,18.4,3.6,1.1,8.8,1.6,12.2.8,1-.7,2.7-1,5.4-.6.8-.9,2.5-1.4,5.5-1.1.5-1.3,2.4-1.7,5.5-1.5.5-1.2,2.5-1.3,5.8-.6.8-1.1,3.2-.6,6.3.8-7.6-11.2-28.2-21-44.2-16.3h0Z"/>
                <g>
                  <path class="st2" d="M244,180.8c11.7-2,23.5,3.3,32.9,10.3-12.1-7.7-22.9-10.5-32.9-10.3h0Z"/>
                  <path class="st2" d="M245.2,182.9c7.8-.8,19.8,2.8,28.5,8.4-10.6-5-20.2-7.8-28.5-8.4h0Z"/>
                  <path class="st2" d="M246.1,184.9c7,0,15.5,2.8,23.3,6.5-8.1-3.1-16.7-5.4-23.3-6.5h0Z"/>
                </g>
              </g>
            </g>
            <g>
              <g>
                <path class="st3" d="M224.7,207.6c-1.6,11.9,4.6,31.1,10.9,37.9-.3-1.4.1-3.3.9-3.7,0-1.9.5-3.3,1.5-3.9,0-1.6.6-2.7,1.5-3.3,0-1.6.6-3,1.6-3.5.1-1.4.6-2.4,1.6-3,0-1,1.6-2.4,1.3-4-.3-1.1-1.3-2.1-3.5-4-3.1-2.5-6.1-5.5-8-8.5-4.8-1.8-6.7-3.1-7.5-4.1h-.2Z"/>
                <g>
                  <path class="st2" d="M226.2,212.7c1,10.5,4.4,19.8,8.2,27.4-2.2-5.3-4.7-12.9-6-20-.6-3.1-1.1-6.3-2.1-7.4h0Z"/>
                  <path class="st2" d="M229,215.5c1.2,7.4,3.6,13.9,6.2,18.9-1.6-3.9-3.1-8.3-4.2-12.8-.5-2.1-1-5-2.1-6.1h0Z"/>
                  <path class="st2" d="M231.8,218.4c.9,3.9,2.3,7.5,3.8,10.1-.8-1.9-1.6-4.4-2.3-6.8-.4-1.2-.8-2.6-1.4-3.2h0Z"/>
                </g>
              </g>
              <g>
                <path class="st2" d="M228.9,207.9c1,1,2.3,1.9,3.5,2.4-2.2-.6-4-1.8-5.4-3.2-.3-.3-1.4-1.3-2.6-.4.6-1.1,1.8-1.5,2.9-.4.5.5,1,1.1,1.6,1.7h0Z"/>
                <path class="st2" d="M227.3,205.6c1.4-.6,1.8,1.7,2.9,3-1.4-1-2.4-2.5-2.9-3Z"/>
              </g>
            </g>
            <g>
              <path class="st3" d="M257.3,282.6c-1.7.2-3.7,1.5-5.7,3,.8-1.3,1.4-2.7,1.1-4,.6-1,1-2.6.4-3.4.6-1.1.6-2.5,0-3.4.4-1.6.3-3-.7-3.7.6-2.1.3-3.7-1.6-4.8-.5-1.9-2.3-2.7-4.4-2.2-1-1.1-4-.3-5.3,1.2-.6-.9-3.9,1-4.7,2.7-1-.9-3.6,1-5.7,3.7,4.7-10.6,16.3-22.2,27.9-27.8l4.8,15.7-2.8,13.1-3.5,9.8h0Z"/>
              <g>
                <path class="st2" d="M257.4,246.8c-6.3,2.9-14.4,10.3-20.5,18.6,7.5-8.4,14.4-14.7,20.5-18.6h0Z"/>
                <path class="st2" d="M258.2,248.7c-5.6,4.3-10.5,9.1-16,14.6,3.9-5.3,10.3-11.6,16-14.6Z"/>
                <path class="st2" d="M259,250.8c-4.4,3.6-8.5,7.5-12.3,11.7,2.4-4,8.8-9.9,12.3-11.7h0Z"/>
              </g>
            </g>
          </g>
        </g>
        <g>
          <path class="st1" d="M233.8,144.8c-3.9-6.4-10.1-11.1-18.4-11.2-18.2-.7-39.6,8-48.1,12.8-4.4,2.5-6.6,4.1-4.3,8.5,1.6,3.1,4.2,7,6.6,10.4-1.2-.1-9.7-1.1-10.8-.4-3.1,1.7,10.6,13.9,12.9,15.7,10.5,8.2,22.7,15.7,32.5,18.1,4.4,1,12.1,1.5,17.2-3.3,16-6.3,23.8-32,12.5-50.5h0Z"/>
          <g>
            <path class="st2" d="M222.1,192.7c.9-2.3,1.4-4.6,1.7-6.8-2.2,6.3-6.8,11.2-16.7,10.5-5-.5-9.4-2.1-13.6-4-6.8-2.8-13.1-7.1-19.2-12.1-2.3-1.7-4.6-3.5-6.6-5.3-3.3-2.9-3.1-3.9-1.8-4.2,1.4-.4,3.9-.2,5.6,0-3.1-.9-6.9-1.9-9.1-3.1,4,1.3,13.3,2.3,22,4.2,0,0,.4.4.8,1.2-2.7-.7-5.6-1.2-8.5-1.5,3.3.9,6.5,1.8,9.5,2.9.7,1.1,1.4,2.1,1.9,2.7.8,1.1,1.7,1.2,2.8.3s1.7-1.5,2.5-2.7h0c3.8,1.3,5.9.6,7.7-2-1.9,1.4-3.2,1.4-4.3,1.1-1.9-.5-3-2.5-3.8-3.8-3.3-5.1-7.7-9.9-12.8-14.1,2.6.2,4.8,1.4,6.5,3.5,7.1,9.3,13.8-.9,19,4.2-.2-1.7-.9-3.4-2.1-4.9,4,.7,4.4,3.9,5.6,5.3,1.4,1.5,3.1,1.6,4.1,3.6.4.5.5,1.3.5,2,.5,6.8-1.5,12.6-5.2,16.1-1.7,0-3.3.5-4.6,1.1-3.9,1.5-6.4,1.9-11.3-.8-1.8-1-3.5-2.1-4.4-3.1,7,1.8,12.1,1.3,14.3-2.6-3,3.1-9.8,2.9-21.1-1.2-5-1.8-8.5-3.5-11.6-5.2,2.2,2.3,6.8,5.1,12.3,7.2,3.8,3.6,7.1,6.1,11.5,8.3,5.8,3,11.3,2.5,16.8,0,3.9-1.7,6.5-5,7.6-10.8,1.3-5.3.4-11,3.3-12.7,1.5-.9,2.6-1.2,4.2-.4,1.2.6,2.3.9,3.5.1,3-2,6.3-1.4,6.5.6,1.3,12.6-6.2,22.4-12.9,26.6h-.3Z"/>
            <g>
              <path class="st0" d="M196.4,152.7c.4-2.4-1.7-3.4-4-3.8s-5.4,1.8-5.8,4.2c0,0,2.7,3.2,5.1,3.1s4.3-1.2,4.8-3.6h-.1Z"/>
              <path class="st1" d="M194,154.3c.3-1.6-.8-3.1-2.4-3.3-1.6-.3-3.1.8-3.3,2.4-.3,1.6.8,3.1,2.4,3.3,1.6.3,3.1-.8,3.3-2.4Z"/>
              <path class="st0" d="M190.9,153.1c0-.5-.2-.9-.7-1s-.9.2-1,.7.2.9.7,1,.9-.2,1-.7Z"/>
            </g>
            <path class="st2" d="M172.2,166.5c-2.3-.2-5.5-.2-8.5-.6,5.1,1.3,10.7,1.2,14.1,2-1.6-.9-2.4-1-3.9-1.3-2.1-2.7-4.2-5.7-5.8-8.4-1.1-1.6-1.8-3-2.3-4-1.5-3.1-.6-4.1,3.1-1.5,1.9,1.4,3.9,3.2,4.6,3.8,5.3,4.8,9.8,10.7,14.1,16.3.8,1.1,1.5,1.9,2.4,1,1-.9,1.5-2.1.4-3.8-3.8-6-8.9-11.3-15.8-15.7-3-1.9-5.4-3.5-4.9-4.8,0,0,17.6-8.4,29.1-5.1s6.1,1.4,8.9,0c3.2-1.5,6-.1,9.2,1,1.9.7,3,.7,4.5,1.1,1.5.3,2.8,0,4.2.1-.7-1.6-2-3-3.7-4.4,2.1.8,4,1.7,5.4,2.9-2-2.6-4.5-4.7-7.4-6.6,3.8,1.2,7.3,3.1,10.5,5.5-4.2-5.1-10.6-7.9-19.5-8.1-18.4-.3-44.6,10.8-47,14.6-.7,1-.4,2.1.4,3.7,1.7,3.7,5.8,9.2,8,12.2h0Z"/>
            <path class="st0" d="M208.1,145.5c3-1.6,6.5-1.3,9.9.5-3.2-1.1-6.5-1.2-9.9-.5Z"/>
            <path class="st0" d="M213.3,166.4c-1-1.6-2.8-2.1-3.8-3.6-.6-1-.9-2.3-1.6-3.2,1,.6,1.7,1.8,2.3,2.8,1.1,1.8,2.5,2.1,3.1,3.9h0Z"/>
            <path class="st0" d="M233.4,162.9c-.6-.3-1.5-.4-2.1-.3-2.3.4-3.2,2.4-5,1.9-.9-.3-1.8-1-2.8-.9.9-.5,2-.1,2.8-.1,1.6,0,4.3-2.2,7.2-.6h0Z"/>
            <path class="st0" d="M192,174.8c-.5.7-1.8,2-2.5,2.2-.6,0-1.3-1-1.8-1.6.6.5,1.1.8,1.7.8.8,0,1.9-.8,2.5-1.4Z"/>
          </g>
          <g>
            <path class="st3" d="M190.7,184.1c1.1.3,3,.5,3.8.5,1,.5,2.5.9,4.1,1.1-1.5.8-4.9.3-7.9-1.6Z"/>
            <path class="st3" d="M211.6,169.2c1.4,2.9-.1,10.8-3.4,15.1,2.1-4.6,3.7-10.6,3.4-15.1Z"/>
            <path class="st1" d="M198.7,138.6c8.6-.9,16.7.5,22.1,2.4-3.9-3.3-13.8-4.5-22.1-2.4Z"/>
            <path class="st1" d="M204.9,192.4c4-.8,7.1-2.3,9.3-4.2,3.3-2.8,4.7-6.8,5.3-11.3,0,10-5.7,15.6-14.6,15.6h0Z"/>
            <path class="st1" d="M213.4,190.9c3-1.5,5.7-5,7.6-9.1-1.5,4.4-3.9,9.1-7.6,9.1Z"/>
            <path class="st1" d="M225.1,188.9c5.6-5.5,9.3-14.8,8.8-21.6-1.8,9.1-4.5,16.2-8.8,21.6Z"/>
            <path class="st1" d="M228.8,180.6c2-5.9,3.2-11.1,2.9-15.2,1.5,3.9-.4,10.1-2.9,15.2Z"/>
            <path class="st1" d="M202.6,145.3c3.5-1.7,8.1,1.3,13,.2-4,2.9-9.1-1.1-13-.2Z"/>
            <path class="st1" d="M185.3,185.2c-1-1.2-2.4-2.4-3.9-3.4-1.6-1.1-3.5-1.6-5-2.8,1.1,1.4,2.7,2.4,4.3,3.3,1.6.9,2.9,1.6,4.5,2.9h0Z"/>
            <g>
              <path class="st3" d="M198.4,175.5c1.5-.8,7.2,3.2,10.7,2.2-2.1,1.4-8.9-1.3-10.7-2.2Z"/>
              <path class="st3" d="M203.4,178.1c-2.7-1-4.7-2.1-5.9-2.4,1.1,1,3.2,1.9,5.9,2.4Z"/>
            </g>
          </g>
        </g>
      </g>
      <polygon class="st3" points="185.8 152.9 198.6 153 194.5 147.7 187 148.5 185.8 152.9"/>
    </g>
    <path class="st2" d="M184.6,151c6.7-.2,13.1.9,18.8,2.4-5.7-.5-11.2-.6-16.5,0l-2.3-2.4h0Z"/>
    <path class="st1" d="M186.7,144.3s17.3-3.8,38.7,2.4l-.7,4.5-38-6.9Z"/>
    <path class="st0" d="M197.1,156.3c-2.3,1.7-5.8,1.7-8.1,0l.2.2c2,1.8,5.4,2,7.6.4.5-.4.9-.8,1.2-1.4-.2.3-.6.5-.8.7h0Z"/>
  </g>
  <path class="st1" d="M234.3,164.9s29,1,50.6,26.1,13.7,54,13.7,54c0,0-5,24.7-19.9,41.2l15.8-17.4,13.4-35.1-6.2-32.7-18.7-28.2-20.9-8.4-19.5-3.3-8.3,3.8h0Z"/>
  <path class="st3" d="M88.2,289.3l5,1.3,24.9-16.5.8-5.1.4-.3,9.1,13.8c6.7,10,5.6,20.2-4.7,27-10.3,6.8-20,3.9-26.9-6.4l-9-13.6.4-.3h0ZM97.8,302.4c4.9,7.5,11.8,7.1,21.2.8,10-6.6,12.8-13,8.1-20l-3-4.5-29.2,19.4,2.8,4.2h0Z"/>
  <path class="st3" d="M125.8,320.4l13.3-16.4-.8-5.1.3-.4,11.6,9.5-.3.4-5.2.2-13.4,16.6c-4.7,5.8-4.6,11.4,0,15,5.6,4.5,11.1,2.1,15.4-3.1l12.9-15.9-.7-5.6.3-.4,7.4,6-.3.4-5.6.4-12.3,15.2c-5.9,7.3-11.8,8.9-19.5,2.7-6.6-5.3-8.4-12.8-3-19.5h0Z"/>
</svg>