<?xml version="1.0" encoding="UTF-8"?>
<svg id="Calque_1" xmlns="http://www.w3.org/2000/svg" version="1.1" viewBox="0 0 450 450">
  <!-- Generator: Adobe Illustrator 29.5.1, SVG Export Plug-In . SVG Version: 2.1.0 Build 141)  -->
  <defs>
    <style>
      .st0, .st1 {
        fill-rule: evenodd;
      }

      .st0, .st2 {
        fill: #fff;
      }

      .st1, .st3 {
        fill: #003468;
      }
    </style>
  </defs>
  <g>
    <path class="st3" d="M104.8,218.3l-2.2-3.1-21.9-2.6-2.9,2.5h-.3s1.3-11.4,1.3-11.4h.3s2.2,3.6,2.2,3.6l23.8,2.8.9-7.8-5.8-5.8v-.2s7.2,1.8,7.2,1.8l-2.4,20.2h-.3Z"/>
    <path class="st3" d="M108.1,193.3l-1.5-3.5-20.8-7.3-3.3,1.8h-.3c0-.1,6.8-19.5,6.8-19.5l7,2.4v.2c0,0-7.5,1.7-7.5,1.7l-2.7,7.6,11.4,4,1.7-4.8-2.3-3.8v-.3c.1,0,7.8,2.7,7.8,2.7v.3c-.1,0-4.5,1.5-4.5,1.5l-1.7,4.8,12.2,4.2,3.1-8.8-4.4-6.9v-.2c0,0,6.7,3.4,6.7,3.4l-7.2,20.5h-.3Z"/>
    <path class="st3" d="M123.1,157.8l-.2-3.8-17.1-13.9-3.7.6-.3-.2,7.7-9.5c5.6-6.9,13-8.4,20.1-2.7,7.1,5.7,7.2,13.3,1.4,20.4l-7.6,9.4-.3-.2ZM130.2,148.1c4.2-5.1,2.4-9.9-4.1-15.2-6.9-5.6-12-6.2-15.9-1.3l-2.5,3.1,20.1,16.4,2.4-2.9Z"/>
    <path class="st3" d="M143.4,134l.7-3.8-13.3-17.6-3.8-.3-.2-.3,16.4-12.4,4.4,5.9h-.2c0,.1-7.1-2.6-7.1-2.6l-6.4,4.9,7.3,9.7,4.1-3.1.2-4.5.3-.2,4.9,6.5-.3.2-4.5-1.2-4.1,3.1,7.8,10.3,7.4-5.6.2-8.2h.2c0,0,3.7,6.4,3.7,6.4l-17.3,13.1-.2-.3Z"/>
    <path class="st3" d="M164.7,118.2l1.6-3.5-8.7-20.2-3.6-1.2v-.3c-.1,0,11.6-5.1,11.6-5.1,6.2-2.7,10.5-1.5,12.2,2.4,1.9,4.5-.9,8.1-4.8,10.4h0c1.1,0,2.4-.4,3.4-.7l9.1,6.7,3.6,1v.3c.1,0-7.1,3.1-7.1,3.1l-11-9.2c-.4.2-.8.4-1.3.6l-1.3.5-.4-.9,1.4-.6c4-1.7,4.5-4.9,2.9-8.8-1.5-3.5-3.9-5.1-8.1-3.3l-2.6,1.1,9.5,22,3.6,1.2v.3c.1,0-10,4.4-10,4.4v-.3Z"/>
    <path class="st3" d="M194.2,83.3l2.9,19.7,3.4,2.4v.3s-6.8,1-6.8,1v-.3s2.4-3.3,2.4-3.3l-3.2-21.5-3.7-2v-.3c0,0,7-1,7-1l18.2,18.5-2.6-17.6-3.4-2.4v-.3s6.9-1,6.9-1v.3s-2.5,3.3-2.5,3.3l3.6,24.3-1.6.9-20.7-21Z"/>
    <path class="st3" d="M223.7,103.1l3-2.4,1-22-2.7-2.7v-.3s11.1.5,11.1.5v.3s-3,2.4-3,2.4l-1,22,2.7,2.7v.3s-11.1-.5-11.1-.5v-.3Z"/>
    <path class="st3" d="M239.5,103.7l3.3-1.9,4.9-21.5-2.2-3.1v-.3c0,0,20.1,4.6,20.1,4.6l-1.6,7.2h-.2s-2.5-7.2-2.5-7.2l-7.9-1.8-2.7,11.8,5,1.1,3.6-2.7h.3c0,0-1.8,8-1.8,8h-.3c0,0-2-4.3-2-4.3l-5-1.1-2.9,12.6,9,2.1,6.4-5.2h.2c0,0-2.6,7-2.6,7l-21.2-4.8v-.3Z"/>
    <path class="st3" d="M265.4,109.9l3.7-1,9.9-19.7-1.4-3.6.2-.3,11.5,5.8c6,3,7.9,7.1,6,10.9-2.2,4.4-6.8,4.5-11.1,3.1h0c.8.8,1.9,1.6,2.8,2.1l.7,11.3,1.6,3.4v.3c-.1,0-7.2-3.5-7.2-3.5v-14.4c-.4-.2-.8-.4-1.3-.6l-1.2-.6.4-.8,1.4.7c3.9,2,6.7.3,8.6-3.4,1.7-3.4,1.4-6.3-2.7-8.3l-2.5-1.3-10.8,21.4,1.4,3.6-.2.3-9.9-5,.2-.3Z"/>
    <path class="st3" d="M312.2,123c6.1-5.7,14.4-5.9,20.4.5,1.7,1.9,3.3,4,4.7,7.8l-5.2,5.6-.3-.3c2.3-4.1,3.6-8.5,0-12.4-3.9-4.1-9.9-2.4-15.7,3-5.9,5.6-7.6,11.4-3.8,15.5,3.3,3.5,7.8,2.8,12.2.7l.3.3-5.9,4.8c-3.6-1.7-5.5-3.2-7.5-5.3-5.7-6.1-5.4-14.4.7-20.1Z"/>
    <path class="st3" d="M321.8,153.4l3.6,1.3,19.3-10.6.9-3.7.3-.2,6.2,11.2c3.2,5.9,2.5,10.4-1.2,12.4-4.3,2.3-8.2-.1-10.9-3.8h0c.3,1.1.7,2.4,1.1,3.3l-5.8,9.7-.6,3.7-.3.2-3.8-6.9,8.2-11.9c-.3-.4-.5-.8-.7-1.2l-.7-1.2.8-.5.7,1.3c2.1,3.9,5.3,4.1,9,2.1,3.3-1.8,4.7-4.4,2.5-8.4l-1.4-2.5-21,11.5-.9,3.7-.3.2-5.3-9.7.3-.2Z"/>
    <path class="st3" d="M335.7,181.3l3.3,2,21-6.6,1.6-3.5h.3c0-.1,3.3,10.5,3.3,10.5h-.3c0,.1-3.3-1.9-3.3-1.9l-21,6.6-1.6,3.5h-.3c0,.1-3.3-10.5-3.3-10.5h.3Z"/>
    <path class="st3" d="M340.4,196.3l2.9,2.5,21.9-2.7,2.2-3.1h.3s2.5,20.4,2.5,20.4l-7.3.9v-.2s5.9-4.8,5.9-4.8l-1-8-12,1.5.6,5.1,3.8,2.4v.3s-8,1-8,1v-.3s3.3-3.3,3.3-3.3l-.6-5.1-12.8,1.6,1.1,9.2,7,4.2v.2s-7.4,0-7.4,0l-2.7-21.6h.3Z"/>
  </g>
  <g>
    <path class="st3" d="M92.2,295.9l5.1,1,24-17.7.5-5.1.4-.3,9.8,13.3c7.2,9.7,6.6,19.9-3.3,27.2-9.9,7.3-19.8,4.9-27.2-5.1l-9.7-13.1.4-.3ZM102.5,308.5c5.3,7.2,12.1,6.5,21.2-.3,9.7-7.1,12.1-13.6,7.1-20.4l-3.2-4.3-28.2,20.8,3,4.1Z"/>
    <path class="st3" d="M131.3,325l12.5-17-1.1-5.1.3-.4,12.1,8.9-.3.4-5.2.5-12.6,17.2c-4.4,6-4,11.6.7,15,5.8,4.2,11.2,1.5,15.2-3.9l12.1-16.5-1-5.6.3-.4,7.7,5.6-.3.4-5.6.7-11.5,15.8c-5.5,7.6-11.3,9.5-19.3,3.7-6.9-5-9-12.4-4-19.3Z"/>
    <path class="st3" d="M201.3,370.4l4.2-3,3.2-32.2-6.3-.6-5.9,7.6h-.3s.9-9.4.9-9.4l30.6,3.1-.9,9.4h-.2s-4.4-8.7-4.4-8.7l-6.2-.6-3.2,32.2,3.5,3.8v.5s-15-1.5-15-1.5v-.5Z"/>
    <path class="st3" d="M240,372.3l2.9-4.2-6.9-29-4.5-2.5v-.5c-.1,0,14.5-3.5,14.5-3.5v.5c.1,0-2.8,4.3-2.8,4.3l3.2,13.4,16.1-3.9-3.2-13.4-4.5-2.5v-.5c-.1,0,14.5-3.5,14.5-3.5v.5c.1,0-2.8,4.3-2.8,4.3l6.9,29,4.6,2.5v.5c.1,0-14.5,3.5-14.5,3.5v-.5c-.1,0,2.8-4.2,2.8-4.2l-3.4-14.3-16.1,3.9,3.4,14.3,4.6,2.5v.5c.1,0-14.5,3.5-14.5,3.5v-.5Z"/>
    <path class="st3" d="M282.4,341.4c-6.4-9.4-4.6-20.4,4.5-26.6,9.1-6.2,20.1-3.9,26.5,5.5,6.4,9.4,4.5,20.4-4.6,26.6-9.1,6.2-20,3.9-26.4-5.5ZM306.9,324.8c-6.3-9.3-13.3-12.9-19.2-8.9-5.9,4-5,11.9,1.3,21.1,6.2,9.2,13.3,12.9,19.1,8.9,5.9-4,5.1-11.9-1.2-21.1Z"/>
    <path class="st3" d="M313.4,301.4l21.8,15.8,5.5-1,.4.3-5.5,7.6-.4-.3-.8-5.5-23.8-17.2-5.4,1.6-.4-.3,5.6-7.8,35.1-.2-19.4-14.1-5.6,1-.3-.2,5.6-7.7.3.2.8,5.6,26.9,19.5-.6,2.4h-39.9Z"/>
  </g>
  <g>
    <g>
      <g>
        <g>
          <g>
            <path class="st3" d="M306.6,194.7c5.8-3,13.3-4.1,21.5-3.6-1.5.2-3,.9-3,1.7-1.8.7-2.6,1.4-2.8,2.1-1.4.9-2.2,1.7-2.5,2.4-1.5,1.1-2.2,2-2.4,2.9-1.4,1.2-1.9,2.2-2.1,3-1,1.1-1.4,2-1.5,2.6-.8.9-1.2,1.7-1.3,2.5-.5.3-1.2,2.2-1.4,3.1l-4.4-16.8Z"/>
            <g>
              <path class="st2" d="M307.8,195.6c.7.4,2.5-.4,3.8-.8,4.1-1.3,6.4-1.8,11.2-2.4-5.1.1-11.2,1.5-15,3.2Z"/>
              <path class="st2" d="M308.3,197.2c.5.3,2.6-.4,4-.8,2.8-.8,4.4-1.3,7.9-1.8-3.5,0-8.9,1.4-11.9,2.6Z"/>
              <path class="st2" d="M308.9,198.5c.3.2,2.3-.3,3.1-.6,2.4-.7,3.5-1.1,6.8-1.6-3.2.2-7.7,1.2-9.8,2.2Z"/>
            </g>
          </g>
          <g>
            <path class="st3" d="M217.7,302.8c-8.4-3.3-6-31.2-22.3-48,2.5,4.4,3.2,7.2,2.5,8.7,1.6,3.8,1.9,5.9,1.3,6.8,1.1,3.2,1.1,5.3.2,6.6.9,3.7.6,5.9-.5,7.2.6,3.4.2,5.6-.9,6.7.7,3.1.2,5.2-.9,6.6-.2,3.1-.8,5.6-2.2,7.2,0,3.7-.6,6.2-1.7,7.4-.4,3.5-1.3,5.6-2.3,6.9-.7,3-1.6,5.3-3.1,6.6-.3,2-1.6,3.9-3.9,5.7,0,1-1.2,2.5-3.8,4.6-.2,1.1-2,2.4-4,3.2,0,1.3-3,3.2-6.3,5.1,18.1-5,36.7-27,48.6-33l-.6-8.2Z"/>
            <g>
              <g>
                <path class="st2" d="M200,263.8c4.6,7.7,6.8,16.4,8.7,23.8,1.1,4.5,2.2,8.5,3.6,11.5-1.9-2.3-3.1-6.7-4.3-11.3-2.3-8.8-4.7-16.9-7.9-23.9Z"/>
                <path class="st2" d="M210,299.2c-2.8-5.5-5.8-19.6-8.8-27,2.3,8.3,4.6,20.9,8.8,27Z"/>
                <path class="st2" d="M207.9,299.6c-2-4.4-4.2-11-6.6-20.6,1.4,9.2,3.6,16,6.6,20.6Z"/>
              </g>
              <g>
                <path class="st2" d="M211,313.6c-3.1,2.3-6.5,5.1-10.2,8.2-5.8,4.8-12,10-18.3,14.1,6-4.9,11.9-9.7,17.8-14.8,3.4-3,7.7-6.2,10.7-7.6Z"/>
                <path class="st2" d="M208.2,313.1c-6,3.9-14.6,12.6-21.3,17.4,6.7-5.9,14.2-14.2,21.3-17.4Z"/>
                <path class="st2" d="M206,312.4c-4.6,2.9-10.1,7.6-15.9,13,5.1-5.9,10.4-10.6,15.9-13Z"/>
              </g>
            </g>
          </g>
          <g>
            <path class="st3" d="M259.9,145c9.4-9,22.3-15.6,38.7-19.7-2.9,1.6-4.5,4.1-3.9,5.3-2.3,2.2-2.9,3.8-2.4,4.9-1.7,2.1-2,4-1.6,5.7-.9,1.8-1,3.3-.5,4.5-.6,1.8-.4,3.2,0,4.5-.5,1.8-.3,3.1.5,4.1-.4,2,0,3.4,1.1,4.7-.1,1.7.3,3.1,1.3,4.3-.2,1.5.3,2.7,1.4,3.7.2,1.6,1.1,2.8,1.9,3.7.3,1.4,1.1,3.1,2,4.2-.7-.1-1.7-.1-2.3,0l-36.4-29.9Z"/>
            <g>
              <path class="st2" d="M263.2,144.9c1.7.3,5-2.1,7.2-3.6,7.3-4.7,12.5-7.3,20.7-11.1-10.2,3.4-21.5,9.4-27.9,14.7Z"/>
              <path class="st2" d="M266.5,146.7c1.5.1,4.5-1.7,7.7-3.6,6-3.7,7.6-4.5,15.4-8.2-8.3,2.7-17,7.1-23.1,11.8Z"/>
              <path class="st2" d="M269.8,148.6c.9,0,2.9-.8,4.5-1.8,5-3.4,6.3-4.1,13.6-8-6.5,2.5-13.8,6.1-18,9.8Z"/>
              <path class="st2" d="M272.6,150.4c1.5,0,5-2.2,6.7-3.3,3.8-2.4,4.1-2.4,8-4.5-4.5,1.6-10.8,4.9-14.6,7.8Z"/>
              <path class="st2" d="M275.2,152c1.4.1,4.3-1.6,5.5-2.3,2.3-1.4,3.1-1.8,5.9-3.5-3.2,1.1-7.9,3.4-11.5,5.8Z"/>
            </g>
          </g>
          <path class="st3" d="M218.9,206.2c-3.1,10.2-.4,27.9,4.2,34.8,0-1.3.6-2.9,1.2-3.2.3-1.6.9-2.8,1.9-3.1.2-1.4.9-2.3,1.8-2.7.2-1.4.9-2.5,1.9-2.8.3-1.2.9-2,1.8-2.4.2-.8,1.8-1.9,1.7-3.3,0-1-.9-2.1-2.6-4-2.4-2.6-4.6-5.6-5.9-8.6l-6.1-4.7Z"/>
        </g>
        <g>
          <path class="st2" d="M210.8,311.5c-3.8-.7-8.5-2.9-11-4.7-.5-.3-1-.9-1-1.4,0-.4.4-.8,1.2-1.2,4.4-2.1,10.1-3.2,13.7-2.6.3,0,.6.1.8.2.6.2,1.2.4,1.7.6.7.3,1.4.6,2.4.8,1.1.2,2.5.2,4.2-.1,20.4-3.6,32-13.6,36.7-31.6,1.7-6.5,1.6-13.4.9-21.8-1-12.2-12-23.4-33.7-34.4-4.7-2.4-8.5-4-12.1-5.5-3.1-1.3-6-2.5-9.3-4.2-5.5-2.8-11.7-6.5-18.4-11.1l21.7-59.8c8.8-.6,17.5-.1,25.8,1.3,5.5.9,10.9,2.3,16.1,4.1,11.5,4,22,9.9,31.1,17.6,8.7,7.4,15.7,16.1,20.9,25.8,11.7,22.1,12.8,48.4,2.9,73.9-6.6,17.1-16,29.6-28.8,38.2-14.6,9.9-33.6,14.8-58.1,15.3-1.5,0-2.4.3-3.3.5-.4.1-.8.2-1.2.3-.8.1-1.9.1-3.1-.1Z"/>
          <path class="st3" d="M305.4,257.4c-12.2,31.5-35.7,52.7-87.1,53.6-2.2,0-3.1.6-4.5.8-3.9.7-11-2.5-14.3-4.8-1-.7-1.9-1.9.2-3,4.6-2.2,11-3.5,14.6-2.5,2.4.7,3.2,2.1,8.1,1.3,21.8-3.8,32.2-14.9,36.5-31.5,1.7-6.5,1.6-13.2.9-21.7-.8-10.3-8.9-21.7-33.5-34.2-8.8-4.4-14.2-6.1-21.4-9.7-5-2.5-11.1-6-18.6-11.2l38.9-4.1c3.8,8.3,9.7,15.3,18.5,20.5,4.9,10.7,11.7,18.7,19.8,24.9,2.7,2,4.1,5.3,5,9,.2.7,1.9,11.8,1.9,11.9.7,5.5,1,10.8-.1,16.1-.5,2.6-1.3,5.1-2.2,7.3-2,4.8-6.6,10.4-7.6,11.2,2-2.9,3.7-6.2,2.8-6.6-.3-.1-.7.3-1.3,1.2-7.4,11.4-20.4,18.2-31.6,20.8,15.3-5,26-14.2,31-24.8,3.6-7.5,5.1-17.1,4.8-25.8-6.2,34.9-22.5,43.4-39.9,48.1-2.5.7-3.9.8-4.7,1.1-1,.3-1.5,1.4-1,2,0-.4.2-.9.6-1.1-.4.8-.2,1.6.6,1.8.9.2,2.3.2,3.7.3,13.7.5,27.5-3.1,39.2-10.2,12.3-7.4,19.8-20.6,28.3-32.2,3.4-4.7,4.2-10.7,4.8-16.4.4-3.7.8-7.5,2-11.1.6-1.7,1.3-5.5,1.9-7.1.4-1.4.4-4.4.4-5.8-.4-7.1-2.6-10.7-5.9-16.9-4.1-7.8-13.9-25.8-30.2-33.7-3.5-1.7-18.7-10-31.8-9.8l-26-30.4c15.3-1,29.5,1.1,42.1,5.4,23.7,8.2,41.9,24.4,52.1,43.5,11.4,21.4,13.1,47.6,2.9,74.1Z"/>
          <g>
            <path class="st3" d="M272.2,253c.9,5.7,1.8,12.7.2,20.1-1.2,6-3.6,10-5.8,13.3,4.3-4.4,7.6-12.6,7.9-20,.2-5.1-.6-10-2.4-13.4Z"/>
            <path class="st3" d="M247,211.7c1.5,5.3,11.6,18.8,17.6,22-5.1-5-11.7-13.5-17.6-22Z"/>
            <path class="st3" d="M259.4,292.7c-4.7,4.4-11.2,8.8-18.2,11.6,9.6-3.1,17-8.5,18.2-11.6Z"/>
          </g>
          <g>
            <g>
              <path class="st3" d="M234.5,303.7c-.5-.3-.9-1.5-.9-2-.4.7.2,1.9.9,2Z"/>
              <path class="st3" d="M231.9,304.4c-.5-.3-.8-1.3-.7-1.8-.3.6.1,1.7.7,1.8Z"/>
              <path class="st3" d="M229.5,305.5c-.5-.3-.8-1.4-.8-1.8-.3.6.1,1.7.8,1.8Z"/>
              <path class="st3" d="M226.6,306.1c-.4-.3-.6-1.1-.6-1.5-.3.5,0,1.4.6,1.5Z"/>
              <path class="st3" d="M224.1,306.2c-.3-.2-.5-1-.5-1.3-.2.4.1,1.2.5,1.3Z"/>
              <path class="st3" d="M236.8,302.7c-.5-.4-1-1.6-1-2.2-.3.8.3,2.1,1,2.2Z"/>
              <path class="st3" d="M239,301.5c-.6-.4-1.2-1.8-1.2-2.5-.3.9.4,2.3,1.2,2.5Z"/>
              <path class="st3" d="M240.7,300.4c-.5-.4-1-1.6-1.1-2.2-.3.8.4,2.1,1.1,2.2Z"/>
              <path class="st3" d="M242.6,299.4c-.5-.3-.9-1.5-1-2-.2.7.3,1.8,1,2Z"/>
            </g>
            <g>
              <path class="st3" d="M284.5,183.8c-.6,1.2-3,2.7-4.2,2.9,1.6.3,4.1-1.4,4.2-2.9Z"/>
              <path class="st3" d="M284.3,188.8c-.6,1.2-2.9,2.5-4,2.7,1.6.3,3.9-1.4,4-2.7Z"/>
              <path class="st3" d="M258.8,174.4c.2,1.1-.9,3.2-1.6,3.9,1.2-.5,2.2-2.8,1.6-3.9Z"/>
              <path class="st3" d="M260.5,168.8c.2,1-.7,3.1-1.4,3.8,1.2-.6,2-2.8,1.4-3.8Z"/>
              <path class="st3" d="M255.1,170.7c1.2-.7,1.8-3.1,1.1-4,.2,1.1-.3,2.9-1.1,4Z"/>
              <path class="st3" d="M253.9,171.4c.3,1.1-.5,3.2-1.2,4,1.2-.7,1.9-3,1.2-4Z"/>
              <path class="st3" d="M251.2,166.3c.4,1-.2,3.3-.7,4.1,1.1-.8,1.5-3.2.7-4.1Z"/>
              <path class="st3" d="M248.2,170c.4,1.3-.5,3.9-1.2,4.8,1.4-.9,2.1-3.7,1.2-4.8Z"/>
              <path class="st3" d="M245.4,166.2c.4,1.1-.2,3.6-.8,4.5,1.2-.9,1.7-3.5.8-4.5Z"/>
              <path class="st3" d="M240.9,167.6c.5,1.3,0,4.2-.8,5.2,1.4-1.1,1.8-4.2.8-5.2Z"/>
              <path class="st3" d="M242.9,173.4c.3,1.2-.5,3.7-1.2,4.6,1.3-.8,2.1-3.5,1.2-4.6Z"/>
              <path class="st3" d="M236.9,167c.5,1.2,0,3.9-.5,4.9,1.2-1,1.5-3.9.5-4.9Z"/>
              <path class="st3" d="M238,173.1c.3.9-.1,2.9-.6,3.6,1-.7,1.3-2.9.6-3.6Z"/>
              <path class="st3" d="M264.6,170.1c.1,1.2-.9,3.4-1.6,4.2,1.3-.6,2.2-3.1,1.6-4.2Z"/>
              <path class="st3" d="M280.5,180.1c-.2,1.3-2.1,3.2-3.2,3.7,1.6-.1,3.5-2.3,3.2-3.7Z"/>
              <path class="st3" d="M264.4,175.6c.1,1.1-1,3.1-1.7,3.8,1.3-.5,2.3-2.8,1.7-3.8Z"/>
              <path class="st3" d="M275.9,190.4c-.5,1.2-2.8,2.6-3.9,2.9,1.6.2,3.9-1.5,3.9-2.9Z"/>
              <path class="st3" d="M284.9,193.8c-.5,1.1-2.8,2.4-3.9,2.6,1.5.3,3.8-1.3,3.9-2.6Z"/>
              <path class="st3" d="M289.2,195.5c-.5,1-2.5,2.2-3.4,2.4,1.3.2,3.4-1.2,3.4-2.4Z"/>
              <path class="st3" d="M295,220.1c-.8.8-3.2,1.2-4.2,1,1.2.7,3.7,0,4.2-1Z"/>
              <path class="st3" d="M292.6,214c-.6,1-2.8,2-3.8,2.1,1.3.3,3.6-.9,3.8-2.1Z"/>
              <path class="st3" d="M301.9,226.9c-.9.6-3.2.6-4.2.3,1,.9,3.5.7,4.2-.3Z"/>
              <path class="st3" d="M289,268.8c-1.1,0-3.1-1.1-3.7-1.8.5,1.3,2.7,2.4,3.7,1.8Z"/>
              <path class="st3" d="M294.4,268.8c-1.1.2-3.2-.7-3.9-1.5.5,1.3,2.8,2.2,3.9,1.5Z"/>
              <path class="st3" d="M303.6,221c-.7.9-2.9,1.6-3.9,1.5,1.3.5,3.6-.4,3.9-1.5Z"/>
              <path class="st3" d="M296.1,224.9c-.9.6-3.2.6-4.2.3,1,.9,3.5.7,4.2-.3Z"/>
              <path class="st3" d="M291.8,272.7c-1,.2-3-.7-3.6-1.4.5,1.2,2.7,2.1,3.6,1.4Z"/>
              <path class="st3" d="M286.4,280.2c-1,.1-2.9-1-3.5-1.7.4,1.2,2.4,2.3,3.5,1.7Z"/>
              <path class="st3" d="M288.4,275.8c-1.1,0-3.1-1.1-3.7-1.8.5,1.3,2.7,2.4,3.7,1.8Z"/>
              <path class="st3" d="M284.6,277c-1.1,0-3.1-1.1-3.7-1.8.5,1.3,2.7,2.4,3.7,1.8Z"/>
              <path class="st3" d="M286.6,272c-.9,0-2.6-.9-3.1-1.5.4,1.1,2.2,2,3.1,1.5Z"/>
              <path class="st3" d="M279.3,284.6c-1,0-2.8-1.2-3.4-1.9.4,1.2,2.4,2.4,3.4,1.9Z"/>
              <path class="st3" d="M282.2,280.3c-1.1,0-3-1-3.6-1.8.4,1.2,2.6,2.3,3.6,1.8Z"/>
              <path class="st3" d="M258.7,301c-.7-.3-1.3-1.5-1.3-2.1-.3.9.5,2.1,1.3,2.1Z"/>
              <path class="st3" d="M255.1,302.8c-.6-.3-1-1.4-1-2-.3.7.3,1.9,1,2Z"/>
              <path class="st3" d="M252.2,304.6c-.6-.3-1.1-1.4-1.2-2-.3.8.4,2,1.2,2Z"/>
              <path class="st3" d="M249,305.6c-.5-.3-.8-1.2-.8-1.7-.3.6.2,1.6.8,1.7Z"/>
              <path class="st3" d="M246.1,306.5c-.3-.2-.6-1.1-.7-1.4-.1.5.2,1.3.7,1.4Z"/>
              <path class="st3" d="M283.3,283.9c-1,0-2.8-1.1-3.4-1.9.3,1.3,2.3,2.4,3.4,1.9Z"/>
              <path class="st3" d="M263.1,299.2c-.9-.4-1.9-2-2-2.8-.2,1.1,1,2.8,2,2.8Z"/>
              <path class="st3" d="M266.6,297.2c-.8-.3-1.7-1.8-1.8-2.6-.2,1,.9,2.6,1.8,2.6Z"/>
              <path class="st3" d="M270,295.2c-.9-.4-2-2.2-2.2-3.1-.2,1.2,1.1,3.1,2.2,3.1Z"/>
              <path class="st3" d="M273.5,292.9c-.9-.3-2.2-1.8-2.5-2.6,0,1.2,1.5,2.7,2.5,2.6Z"/>
              <path class="st3" d="M276.2,290.1c-1-.1-2.8-1.5-3.2-2.3.2,1.3,2.1,2.7,3.2,2.3Z"/>
              <path class="st3" d="M279.8,288.2c-1.1,0-3-1.2-3.6-2,.4,1.3,2.5,2.5,3.6,2Z"/>
              <path class="st3" d="M306.1,229.1c-.9.6-3.2.6-4.2.3,1,.9,3.5.7,4.2-.3Z"/>
              <path class="st3" d="M296.1,229.9c-.9.6-3.2.6-4.2.3,1,.9,3.5.7,4.2-.3Z"/>
              <path class="st3" d="M296.5,234.9c-.9.6-3.3.4-4.2,0,1,.9,3.5.9,4.2,0Z"/>
              <path class="st3" d="M302.8,235.9c-1,.6-3.4.4-4.3,0,1,1,3.6,1,4.3,0Z"/>
              <path class="st3" d="M301.3,231.8c-.9.6-3.3.7-4.3.3,1.1.9,3.6.7,4.3-.3Z"/>
              <path class="st3" d="M291,264.8c-1.1.2-3.2-.8-3.9-1.5.6,1.2,2.9,2.1,3.9,1.5Z"/>
              <path class="st3" d="M294.4,261.6c-1.2.3-3.6-.7-4.4-1.4.7,1.3,3.4,2.2,4.4,1.4Z"/>
              <path class="st3" d="M295.5,256c-1,.5-3.3.2-4.2-.3.9,1,3.4,1.2,4.2.3Z"/>
              <path class="st3" d="M300.3,238.4c-.9.6-3.3.4-4.2,0,1,.9,3.5.9,4.2,0Z"/>
              <path class="st3" d="M301.3,243.7c-.9.6-3.3.4-4.2,0,1,.9,3.5.9,4.2,0Z"/>
              <path class="st3" d="M300.6,252.1c-.8.5-2.7.5-3.5.2.9.7,2.9.6,3.5-.2Z"/>
              <path class="st3" d="M297.9,259.7c-.9.2-2.7-.5-3.3-1.1.5,1,2.5,1.6,3.3,1.1Z"/>
              <path class="st3" d="M300.5,247.8c-.8.5-2.7.5-3.5.2.9.7,2.9.6,3.5-.2Z"/>
              <path class="st3" d="M296.3,241.2c-.9.6-3.3.4-4.2,0,1,.9,3.5.9,4.2,0Z"/>
              <path class="st3" d="M296.4,250.6c-1,.5-3.3.3-4.2-.2.9,1,3.4,1.1,4.2.2Z"/>
              <path class="st3" d="M300.3,254.5c-1,.5-3.2.2-4.1-.2.9,1,3.3,1.1,4.1.2Z"/>
              <path class="st3" d="M297.1,265.5c-1.1.2-3.3-.8-3.9-1.5.5,1.4,2.9,2.3,3.9,1.5Z"/>
              <path class="st3" d="M296.5,246.4c-1,.5-3.3.3-4.2-.2.9,1,3.4,1.1,4.2.2Z"/>
              <path class="st3" d="M289.7,198.8c-.5,1-2.5,2.2-3.4,2.4,1.3.2,3.4-1.2,3.4-2.4Z"/>
              <path class="st3" d="M301.1,217.4c-.7.8-2.9,1.5-3.9,1.5,1.2.5,3.6-.3,3.9-1.5Z"/>
              <path class="st3" d="M297.1,214.8c-.6.9-2.7,1.9-3.7,1.9,1.3.4,3.5-.7,3.7-1.9Z"/>
              <path class="st3" d="M292.1,205.4c-.5.9-2.4,2.1-3.3,2.2,1.3.2,3.2-1.1,3.3-2.2Z"/>
              <path class="st3" d="M278.1,195.1c-.5,1-2.5,2.2-3.4,2.4,1.3.2,3.4-1.2,3.4-2.4Z"/>
              <path class="st3" d="M296.7,209.4c-.5,1-2.5,2.2-3.4,2.4,1.3.2,3.4-1.2,3.4-2.4Z"/>
              <path class="st3" d="M293.5,200.7c-.5,1-2.5,2.2-3.4,2.4,1.3.2,3.4-1.2,3.4-2.4Z"/>
              <path class="st3" d="M289.9,209.3c-.6.9-2.9,1.9-3.9,2,1.3.4,3.6-.8,3.9-2Z"/>
              <path class="st3" d="M282,199.8c-.5,1-2.6,2.2-3.6,2.5,1.4.2,3.5-1.2,3.6-2.5Z"/>
              <path class="st3" d="M298.4,203.5c-.6,1.2-3.1,2.7-4.3,2.9,1.7.3,4.2-1.4,4.3-2.9Z"/>
              <path class="st3" d="M286.3,204.5c-.5,1-2.6,2.2-3.6,2.5,1.4.2,3.5-1.2,3.6-2.5Z"/>
              <path class="st3" d="M274.9,181.6c0,1.3-1.8,3.5-2.8,4.2,1.6-.3,3.3-2.8,2.8-4.2Z"/>
              <path class="st3" d="M269.2,173.5c.1,1.2-1.1,3.5-2,4.2,1.4-.5,2.6-3,2-4.2Z"/>
              <path class="st3" d="M275.1,176c0,1.3-1.8,3.5-2.8,4.1,1.6-.3,3.3-2.8,2.8-4.1Z"/>
              <path class="st3" d="M269.5,179.1c0,1.3-1.8,3.5-2.8,4.1,1.6-.3,3.2-2.8,2.8-4.1Z"/>
            </g>
          </g>
          <g>
            <path class="st2" d="M305.8,250.2c-2.4,7.6-5.9,15.8-10.4,22.9-5.4,8.7-12.1,15.6-20,21,12.9-10.1,22.6-25.4,30.4-43.9Z"/>
            <g>
              <path class="st2" d="M201.3,305.3c3.9-1.8,9-2.7,12.1-2.2.8.1,1.7.5,2.5.8-1.2,0-2-.3-2.9-.3-2.8-.2-6,0-11.6,1.8Z"/>
              <path class="st2" d="M213.5,310.2c-.6.1-1.5,0-2.5,0-2.1-.4-4.6-1.3-6.8-2.4,3.3,1.2,7.2,1.8,9.3,2.5Z"/>
              <path class="st2" d="M206.7,306.4c5.2-.3,9-.3,11.6.5-2.8.1-6.8,0-11.6-.5Z"/>
            </g>
            <path class="st2" d="M220.1,305.9c-.4.7-.3,1.5.2,2.2-.9-.4-1-1.6-.2-2.2Z"/>
            <path class="st2" d="M295.3,181.2c-1-4.2-2.5-7.9-4.4-11.4,3.8,4.5,7.1,9.4,9.8,14.5,4,7.5,6.7,15.5,8.1,23.7-1.7-7.5-7-18.7-13.5-26.9Z"/>
            <path class="st2" d="M248.9,147.9c-4.9-4.5-10.1-8.2-19.2-10.7,20.2,2.6,39.2,11.1,54.1,25.1-9-6.2-22.6-11.8-34.9-14.4Z"/>
            <path class="st2" d="M207.2,198.2c4.5,4.9,10.4,9.2,14.7,12.2-8.9-3-22.4-9.8-29.5-14.4l14.8,2.3Z"/>
            <path class="st2" d="M229,148.4c6.7.6,13,2.3,18.4,4.5-5.6-1.1-11.1-1.8-16.4-1.8l-2-2.7Z"/>
            <path class="st2" d="M229.2,153c6.7.6,13,2.3,18.4,4.5-5.6-1.1-11.1-1.8-16.4-1.8l-2-2.7Z"/>
            <path class="st2" d="M231.6,153.3c10.4.7,19.7,3.5,28.2,7.9-8.9-2.8-17.8-3.9-26.6-4l-1.6-3.9Z"/>
          </g>
        </g>
        <g>
          <g>
            <g>
              <path class="st3" d="M260.9,283.9c-1.2.3-2.3.9-3.6,1.6.3,1.2.4,2.4.5,3.5l3.2-5.1Z"/>
              <path class="st2" d="M259.8,284.7c-.7.3-1.3.6-2,1,0,.2,0,.5.1.7.6-.5,1.2-1.1,1.9-1.6Z"/>
            </g>
            <g>
              <path class="st3" d="M257.2,289.7c-1.2.1-2.4.4-3.8.9,0,1.2,0,2.4-.1,3.5l3.9-4.4Z"/>
              <path class="st2" d="M256,290.4c-.7.1-1.4.3-2.1.6,0,.2,0,.4,0,.6.6-.4,1.3-.8,2.1-1.2Z"/>
            </g>
            <g>
              <path class="st3" d="M252.3,294.8c-1.1,0-2.3,0-3.6.3,0,1.1-.3,2.2-.6,3.2l4.2-3.5Z"/>
              <path class="st2" d="M251,295.3c-.6,0-1.2.1-1.9.2,0,.2,0,.4,0,.6.5-.3,1.2-.5,1.9-.8Z"/>
            </g>
            <g>
              <path class="st3" d="M246.8,299.2c-1-.2-2.1-.2-3.4-.2-.2,1-.6,2-1,2.8l4.3-2.6Z"/>
              <path class="st2" d="M245.4,299.5c-.5,0-1.1,0-1.6,0,0,.2,0,.3-.1.5.5-.2,1.1-.3,1.8-.5Z"/>
            </g>
            <g>
              <path class="st3" d="M241.9,302.2c-.9-.2-1.8-.4-2.9-.4-.3.9-.7,1.7-1.1,2.4l4-2Z"/>
              <path class="st2" d="M240.5,302.4c-.4,0-.8-.1-1.2-.1,0,.1,0,.2-.1.4.4,0,.8-.2,1.4-.2Z"/>
            </g>
            <g>
              <path class="st3" d="M237.4,304.5c-.7-.3-1.5-.5-2.4-.7-.3.7-.7,1.4-1.2,1.9l3.6-1.3Z"/>
              <path class="st2" d="M236,304.5c-.2,0-.5-.1-.8-.2,0,0,0,.2-.1.2.3,0,.6,0,.9,0Z"/>
            </g>
          </g>
          <g>
            <g>
              <path class="st3" d="M236.7,180.2c4.2,6.9.9,14.6,4,17.2-5.8-1-.8-9.2-4-17.2Z"/>
              <path class="st3" d="M237.2,194.9c-.8-1.7.3-5.6-.2-9.2-.3,4.5-2,7.7.2,9.2Z"/>
            </g>
            <g>
              <path class="st3" d="M236.4,177.9c5.5,6,7.1,14,5.4,18,3.7.8,8.9.8,12.2-.4.9-.8,2.6-1.3,5.3-1.1.7-1,2.4-1.6,5.4-1.6.4-1.3,2.2-1.9,5.3-2,.4-1.2,2.4-1.5,5.7-1.1.7-1.2,3.1-.9,6.3.2-8.6-10.4-30.1-18.2-45.6-12Z"/>
              <g>
                <path class="st2" d="M241,178.8c11.5-3.1,23.7,1,33.7,7.1-12.8-6.5-23.8-8.3-33.7-7.1Z"/>
                <path class="st2" d="M242.4,180.8c7.7-1.5,20,.9,29.2,5.6-11-4-20.8-5.8-29.2-5.6Z"/>
                <path class="st2" d="M243.5,182.7c7-.6,15.7,1.3,23.8,4.3-8.4-2.3-17.1-3.8-23.8-4.3Z"/>
              </g>
            </g>
          </g>
          <g>
            <g>
              <path class="st3" d="M224.4,207.3c-.5,12,7.5,30.5,14.5,36.7-.4-1.4-.2-3.3.5-3.8-.2-1.9.2-3.3,1.1-4-.2-1.6.3-2.7,1.2-3.4-.2-1.6.3-3,1.3-3.6,0-1.4.4-2.4,1.3-3.1,0-1,1.4-2.5.9-4.1-.4-1.1-1.5-2-3.9-3.6-3.3-2.2-6.6-4.9-8.8-7.7-4.9-1.3-7-2.4-7.9-3.4Z"/>
              <g>
                <path class="st2" d="M226.4,212.3c2,10.4,6.3,19.3,10.8,26.5-2.7-5.1-5.9-12.4-7.9-19.3-.9-3-1.7-6.2-2.8-7.2Z"/>
                <path class="st2" d="M229.4,214.8c1.9,7.3,4.9,13.5,8,18.2-2-3.7-3.9-8-5.4-12.3-.7-2-1.5-4.9-2.7-5.9Z"/>
                <path class="st2" d="M232.5,217.4c1.3,3.8,3,7.2,4.7,9.7-1-1.8-2-4.2-2.9-6.6-.5-1.2-1-2.5-1.7-3.1Z"/>
              </g>
            </g>
            <g>
              <path class="st2" d="M228.6,207.2c1.1.9,2.5,1.7,3.7,2.1-2.2-.4-4.2-1.4-5.7-2.7-.3-.3-1.5-1.2-2.6-.2.5-1.2,1.6-1.7,2.8-.7.5.5,1.1,1,1.8,1.5Z"/>
              <path class="st2" d="M226.8,205.1c1.3-.7,2,1.5,3.2,2.7-1.5-.9-2.6-2.3-3.2-2.7Z"/>
            </g>
          </g>
          <g>
            <path class="st3" d="M264,278.9c-1.7.4-3.5,1.8-5.4,3.5.7-1.4,1.1-2.8.7-4.1.5-1.1.7-2.7.1-3.4.5-1.2.4-2.5-.3-3.4.2-1.6,0-3-1-3.6.4-2.1-.1-3.7-2-4.6-.7-1.8-2.6-2.5-4.6-1.8-1.1-1-4,.1-5.2,1.7-.7-.8-3.8,1.4-4.4,3.1-1.1-.8-3.5,1.3-5.3,4.2,3.7-11,14.1-23.7,25.1-30.3l6.3,15.2-1.5,13.3-2.5,10.1Z"/>
            <g>
              <path class="st2" d="M260.7,243.2c-6,3.5-13.4,11.6-18.6,20.5,6.7-9.1,12.9-16,18.6-20.5Z"/>
              <path class="st2" d="M261.7,245c-5.2,4.8-9.6,10.1-14.5,16.1,3.4-5.6,9.2-12.5,14.5-16.1Z"/>
              <path class="st2" d="M262.7,247.1c-4,4-7.7,8.3-11.1,12.8,2-4.2,7.8-10.7,11.1-12.8Z"/>
            </g>
          </g>
        </g>
      </g>
      <g>
        <path class="st1" d="M227.5,143.9c-4.5-6-11.1-10.1-19.4-9.4-18.2,1-38.7,11.7-46.7,17.3-4.1,2.9-6.2,4.7-3.5,8.9,1.9,2.9,4.9,6.6,7.6,9.7-1.2,0-9.8-.2-10.8.6-2.9,2,11.9,12.8,14.3,14.4,11.2,7.2,24.1,13.5,34.1,14.9,4.5.6,12.2.3,16.8-4.9,15.3-7.8,20.6-34.1,7.6-51.5Z"/>
        <g>
          <path class="st2" d="M220.4,192.7c.7-2.4,1-4.7,1-6.9-1.6,6.5-5.7,11.8-15.6,12-5,0-9.6-1.2-13.9-2.7-7-2.1-13.7-5.8-20.3-10.2-2.5-1.5-4.9-3-7.1-4.6-3.6-2.6-3.5-3.6-2.2-4,1.4-.5,3.9-.6,5.6-.5-3.2-.6-7-1.2-9.4-2.2,4.1.9,13.5,1,22.3,2.1,0,0,.4.4.9,1.1-2.8-.4-5.7-.7-8.6-.7,3.4.6,6.6,1.2,9.7,2,.8,1,1.6,2,2.1,2.5.9,1,1.8,1,2.8,0,.8-.8,1.5-1.7,2.2-2.9h0c3.9.9,5.9,0,7.5-2.7-1.8,1.6-3.1,1.7-4.2,1.5-1.9-.3-3.2-2.2-4.1-3.4-3.8-4.8-8.6-9.1-14.1-12.8,2.6,0,4.9.9,6.8,2.9,8,8.6,13.7-2.2,19.3,2.4-.4-1.7-1.2-3.3-2.6-4.7,4,.3,4.8,3.5,6.1,4.7,1.5,1.4,3.2,1.3,4.4,3.2.4.5.6,1.2.7,1.9,1.1,6.7-.3,12.7-3.6,16.5-1.7.1-3.2.8-4.5,1.5-3.7,1.9-6.2,2.5-11.3.3-1.9-.8-3.7-1.8-4.7-2.7,7.1,1.1,12.2.1,14-4-2.7,3.4-9.5,3.8-21.1.8-5.1-1.3-8.8-2.7-12-4.1,2.4,2.1,7.3,4.4,12.9,6,4.1,3.2,7.6,5.4,12.2,7.2,6.1,2.4,11.5,1.4,16.7-1.6,3.7-2.1,6-5.6,6.5-11.5.8-5.4-.7-11,2.1-13,1.4-1,2.5-1.4,4.1-.8,1.3.5,2.4.7,3.5-.2,2.8-2.3,6.1-2,6.5,0,2.5,12.4-4,22.9-10.3,27.7Z"/>
          <g>
            <path class="st0" d="M191,155.4c.2-2.4-2-3.2-4.3-3.4s-5.2,2.3-5.4,4.7c0,0,3,2.9,5.4,2.6s4.2-1.6,4.4-4Z"/>
            <path class="st1" d="M188.8,157.2c.1-1.6-1.1-3-2.7-3.1-1.6-.1-3,1.1-3.1,2.7-.1,1.6,1.1,3,2.7,3.1,1.6.1,3-1.1,3.1-2.7Z"/>
            <path class="st0" d="M185.6,156.3c0-.5-.3-.9-.8-.9s-.9.3-.9.8.3.9.8.9c.5,0,.9-.3.9-.8Z"/>
          </g>
          <path class="st2" d="M168.2,171.4c-2.3,0-5.5.3-8.5.2,5.2.8,10.8.2,14.2.7-1.7-.7-2.5-.8-4-.9-2.3-2.5-4.7-5.3-6.6-7.8-1.2-1.5-2.1-2.8-2.7-3.8-1.8-2.9-1-4,2.9-1.8,2,1.2,4.2,2.8,4.9,3.3,5.7,4.3,10.8,9.7,15.6,14.9.9,1,1.7,1.7,2.5.8.9-1,1.3-2.2,0-3.8-4.4-5.6-9.9-10.4-17.2-14.1-3.2-1.6-5.7-3-5.3-4.3,0,0,16.7-10,28.5-7.9s6.2.8,8.9-.8c3-1.8,6-.7,9.3.1,2,.5,3.1.4,4.6.7,1.5.2,2.8-.3,4.2-.3-.8-1.5-2.3-2.8-4.1-4,2.2.6,4.1,1.3,5.7,2.4-2.2-2.4-4.9-4.3-8-5.9,3.9.8,7.6,2.4,11,4.5-4.7-4.7-11.3-6.9-20.2-6.2-18.3,1.5-43.4,15-45.4,19-.6,1.1-.2,2.1.7,3.6,2,3.5,6.6,8.6,9.1,11.4Z"/>
          <path class="st0" d="M202,147.1c2.8-1.9,6.3-1.9,9.9-.4-3.3-.8-6.6-.6-9.9.4Z"/>
          <path class="st0" d="M209.1,167.4c-1.1-1.5-3-1.8-4.1-3.2-.7-.9-1.1-2.2-1.9-3,1.1.5,1.9,1.6,2.6,2.6,1.3,1.7,2.7,1.9,3.5,3.6Z"/>
          <path class="st0" d="M228.8,162c-.6-.2-1.5-.3-2.1-.1-2.3.6-3,2.7-4.8,2.4-.9-.2-1.9-.8-2.9-.6.8-.6,2-.3,2.8-.4,1.6-.1,4.1-2.6,7.1-1.3Z"/>
          <path class="st0" d="M188.7,177.8c-.4.7-1.6,2.2-2.3,2.4-.6.1-1.4-.9-1.9-1.4.6.4,1.2.7,1.8.6.8-.1,1.8-1,2.4-1.6Z"/>
        </g>
        <g>
          <path class="st3" d="M188.3,187.2c1.1.2,3,.2,3.8.1,1,.4,2.6.7,4.2.7-1.4.9-4.8.8-8-.8Z"/>
          <path class="st3" d="M207.7,170.3c1.7,2.8.9,10.8-1.9,15.4,1.6-4.8,2.7-10.9,1.9-15.4Z"/>
          <path class="st1" d="M191.9,141.1c8.5-1.7,16.7-1.1,22.2.3-4.2-2.9-14.2-3.2-22.2-.3Z"/>
          <path class="st1" d="M203.2,194.1c3.9-1.2,6.8-3,8.9-5.1,3-3.1,4-7.2,4.2-11.8,1,9.9-4.2,16.1-13,16.9Z"/>
          <path class="st1" d="M211.6,191.8c2.8-1.8,5.2-5.5,6.7-9.8-1.1,4.5-3,9.4-6.7,9.8Z"/>
          <path class="st1" d="M223,188.7c5.1-6,7.8-15.6,6.7-22.3-.9,9.2-2.9,16.6-6.7,22.3Z"/>
          <path class="st1" d="M225.9,180.1c1.4-6.1,2.1-11.4,1.4-15.4,1.9,3.7.6,10.1-1.4,15.4Z"/>
          <path class="st1" d="M196.5,147.4c3.3-2,8.2.5,13-1-3.7,3.3-9.2-.2-13,1Z"/>
          <path class="st1" d="M183,188.8c-1.1-1.1-2.6-2.2-4.2-3-1.7-.9-3.6-1.3-5.2-2.3,1.2,1.3,2.9,2.1,4.6,2.9,1.7.7,3,1.3,4.8,2.5Z"/>
          <g>
            <path class="st3" d="M195.2,177.9c1.4-.9,7.5,2.5,10.9,1.2-2,1.6-9-.4-10.9-1.2Z"/>
            <path class="st3" d="M200.4,180c-2.8-.7-4.9-1.6-6.1-1.8,1.2.9,3.4,1.6,6.1,1.8Z"/>
          </g>
        </g>
      </g>
    </g>
    <polygon class="st3" points="180.5 156.6 193.2 155.5 188.6 150.6 181.2 152.1 180.5 156.6"/>
  </g>
  <polygon class="st1" points="92 229.1 95.2 238.9 105.5 238.9 97.1 245 100.3 254.8 92 248.7 83.7 254.8 86.8 245 78.5 238.9 88.8 238.9 92 229.1"/>
  <polygon class="st1" points="355.8 229.1 358.9 238.9 369.2 238.9 360.9 245 364.1 254.8 355.8 248.7 347.4 254.8 350.6 245 342.3 238.9 352.6 238.9 355.8 229.1"/>
  <path class="st2" d="M179.1,154.8c6.7-.8,13.1-.4,18.9.6-5.7,0-11.2.5-16.4,1.6l-2.5-2.2Z"/>
  <path class="st1" d="M180.5,147.9s16.9-5.4,38.8-1.3l-.3,4.5-38.5-3.2Z"/>
  <path class="st0" d="M192,158.9c-2.1,1.9-5.6,2.2-8.1.8,0,0,.1.1.2.2,2.2,1.6,5.6,1.5,7.6-.3.5-.4.8-.9,1.1-1.5-.2.3-.5.6-.7.8Z"/>
  <path class="st1" d="M234.3,164.9s29,1,50.6,26.1,13.7,54,13.7,54c0,0-5,24.7-19.9,41.2l15.8-17.4,13.4-35.1-6.2-32.7-18.7-28.2-20.9-8.4-19.5-3.3-8.3,3.8Z"/>
</svg>