<?xml version="1.0" encoding="UTF-8"?>
<svg id="Calque_1" xmlns="http://www.w3.org/2000/svg" version="1.1" viewBox="50 150 350 142">
  <!-- Generator: Adobe Illustrator 29.5.1, SVG Export Plug-In . SVG Version: 2.1.0 Build 141)  -->
  <defs>
    <style>
      .st0 {
        fill: #003468;
        fill-rule: evenodd;
      }
    </style>
  </defs>
  <path class="st0" d="M373,234.3c-3.9-.5-8.9-.8-13.3-.8,3.8-4.2,8.1-7.5,12.2-10.8,1.1-.9,1.2-2.3.1-3.4-3.2-3.1-22.9-17.2-42.1-21.3h0c-13.6-4.5-26.4-7.8-38.8-9.9-4.9-13.1-14.9-30.4-24.2-40.6.8,2.3.4,4.9-.9,5.9.4,2.1-.3,4-1.3,4.7.1,1.9-.7,3.9-1.9,4.8-.2,2-1.4,4-2.5,4.7-.2,1.6-1.6,3.3-2.8,3.8-.7,1.9-2.2,3.1-3.4,3.5-.9,1.6-2.4,2.4-3.6,2.5-1.2,1.4-2.9,2.1-4.3,2.2-.9,1.2-2.4,1.7-4,1.6-.7.8-2.3,1.4-3.8,1.3-1.1.8-2.7,1.3-4.2,1.2-1.4.9-3.4,1.4-4.9,1.1-1.1.9-3.7,1.4-6.2,1,.7.7,1.4,1.5,2,2.4-1.3.2-2.7.4-4,.7-7.4-10.4-23.9-22.3-38.6-27.3,2.1,1,4,2.7,3.8,3.6,1.4.5,2.4,1.8,2.2,2.5,1.6.8,2.4,2.1,2.4,2.9,1.3.8,2.3,2.3,2.2,3,1.2.9,1.8,2.3,1.7,2.8,1.5,1.4,1.9,3.2,1.6,3.9.9,1.6.9,3.2.5,3.9.4,1.6,0,2.8-.9,3.7-.3,1.4-1,2.3-2.1,2.8-.4.9-.9,1.7-2.1,1.8-.7.8-1.4,1.3-2.6,1.4-.6.5-1.5,1-2.4,1-.4.7-2.2,1.2-3.5,1,.7.4,1.4,1,2,1.5-1.1.3-2.2.7-3.4,1-1.7-.7-3.6-1.3-5.8-1.7-.8,1.6-1.7,3.1-2.7,4.4-1.2.4-2.3.7-3.5,1.1-1.6-.6-3.4-1.2-5.4-1.6-.8,1.5-1.6,2.9-2.5,4.1-1.3.4-2.7.8-4,1.3-1.4-.5-3-1-4.7-1.4-.6,1.3-1.4,2.4-2.1,3.5-1.6.5-3.3,1-4.9,1.5-1.3-.5-2.7-1-4.3-1.3-.6,1.2-1.3,2.2-2,3.2-1.7.5-3.5,1-5.1,1.5-1.2-.5-2.4-.9-3.9-1.2-.6,1-1.2,2-1.8,2.8-1.9.5-3.7,1-5.5,1.4-1-.4-2.1-.8-3.4-1.1-.5.9-1,1.6-1.6,2.4-1.6.4-3.1.8-4.6,1.1-.9-.5-1.9-.9-3-1.2-.6.9-1.2,1.6-1.8,2.3-4.2.8-5.2.1-5.9-1.2,0,0,0,0,0,0-7.2-17.4-22.2-37.4-38.6-47.4,2.2,1.8,4.1,4.4,4.2,5.7,2,1.6,2.8,3.1,2.9,4.6,2.3,2.2,3.2,4,3,5.6,1.9,2.2,2.6,4,2.5,5.6,1.6,2.2,2.4,4.1,2.2,5.8,1.8,2.7,2.5,4.9,1.9,6.6,1.4,2.3,1.9,4.3,1.4,6.2,1.1,2.1,1.3,4.2.9,6.2,1.1,2.5,1.2,5,.6,7,.7,1.9.6,4.2,0,6,.8,2.2.8,3.8-.3,6,.7,1.6,0,4.6-1,5.9,0,1.4-.8,3.8-1.8,5.1.4,2.3,0,4.1-1.8,6.3.1,1.6-.8,5.1-2.3,6.3-.1,1.7-1.9,4.4-3.1,5.4-.3,2.8-1.4,4.5-4,6.9-.5,2.6-2.6,4.7-5.4,7,11.3-6.6,31.6-22.5,39.1-48.6.6-2,2.6-2.3,6.3-1.6.6.7,1.2,1.4,1.8,2.3,1.1-.3,2-.7,2.9-1.1,1.6.4,3.2.8,4.8,1.2.6.8,1.2,1.7,1.8,2.7,1.4-.3,2.7-.7,3.8-1.2,1.5.4,2.9.8,4.3,1.3.8,1,1.6,2.1,2.3,3.4,1.6-.4,3.1-.8,4.3-1.4.7.2,1.4.5,2.1.7.6.2,1.1.4,1.7.6.8,1.2,1.6,2.5,2.3,4,2-.3,3.8-.7,5.4-1.3.9.3,1.7.6,2.6,1,1,1.5,2,3,2.8,4.8,2.1-.3,4-.8,5.6-1.4.8.3,1.6.7,2.5,1,1,1.5,2,3.1,2.7,4.9,2.1-.3,4-.7,5.7-1.3,1.2.5,2.4,1.1,3.6,1.6-.7.4-1.5.9-2.4,1.3,2.2.3,3.1,1,3,1.6,1.8.4,2.5,1,2.6,1.7,1.9.7,2.6,1.4,2.5,2.2,1.8.9,2.6,2,2.2,3,1.7,1.2,1.7,2.5,1.2,3.4,1,1.3.5,3.5-.3,4.6.4,1.3-.2,2.8-1.5,3.6.3,1-.9,2.7-2.1,3,0,1.1-1.5,2.5-2.9,3.1,0,.8-1.1,2-2.9,2.5-.2.5-.8,1.1-2.3,1.7-.1.5-1.4,1.4-3.2,2.2,12.9-3.5,27.3-12.2,38.4-21.4,20.2,5.6,43.9,7.1,66.1,6-.3,0-.5.1-.8.2-2.8.7-4.2,1.2-4.9,2.1-1,1.3-.1,3.3-.5,4.2.6.9.6,2.1.2,3.4.7.9.7,2.4,0,3.8.6,1,.6,2.2,0,3.6.7,1,.5,2.4-.2,4.1.4.7,0,2.5-.8,3.8,7.9-3.2,19.9-15.9,24.7-26.8,16.2-1.9,30.9-5.2,41.7-9.3,13.5-2.2,31.3-11.5,42.7-19.9,2.6-1.9,2.5-3.3,0-3.6Z"/>
</svg>